<svg width="19" height="36" viewBox="0 0 19 36" fill="none" xmlns="http://www.w3.org/2000/svg">
<path d="M7.25 27C7.25 27 8.37676 26 9.25 26C10.1232 26 11.25 27 11.25 27C11.25 27 13.25 30 9.25 36C5.25 30 7.25 27 7.25 27Z" fill="black"/>
<path d="M3.25 12C3.25 5.37258 5.93629 2 9.25 0C12.5637 2 15.25 5.37258 15.25 12C15.25 13.7844 15.0553 15.4779 14.706 17C14.706 17 15.25 21 18.25 22C18.25 22 19.25 32 17.25 30C15.25 28 13.25 27 13.25 27C13.25 27 13.8023 25.1046 13.25 24C13.003 23.506 11.5606 23.0779 11.5606 23.0779C11.5606 23.0779 11.5606 23.6406 11.25 24C10.3675 25.021 10.3429 24 9.25 24C8.15714 24 8.13252 25.021 7.25 24C6.93938 23.6406 6.93938 23.0779 6.93938 23.0779C6.93938 23.0779 5.49699 23.506 5.25 24C4.69771 25.1046 5.25 27 5.25 27C5.25 27 3.25 28 1.25 30C-0.75 32 0.25 22 0.25 22C3.25 21 3.79404 17 3.79404 17C3.44474 15.4779 3.25 13.7844 3.25 12Z" fill="black"/>
</svg>
