<svg width="129" height="129" viewBox="0 0 129 129" fill="none" xmlns="http://www.w3.org/2000/svg">
<g clip-path="url(#clip0_2407_23)">
<path d="M120.128 96.7025C109.486 115.135 91.059 126.271 71.3978 128.356C70.5739 128.45 69.7776 128.519 69.0082 128.564C67.9451 128.637 66.8791 128.683 65.8113 128.702H128.702V65.9311C128.511 76.4081 125.738 86.9851 120.128 96.7025Z" fill="black"/>
<path d="M63.5931 0.702461H0.702515V63.474C0.894148 52.9969 3.66655 42.4198 9.27689 32.7025C20.922 12.5325 41.8882 1.0993 63.5931 0.702461Z" fill="black"/>
<path fill-rule="evenodd" clip-rule="evenodd" d="M65.9311 0.702461C65.1511 0.688192 64.3716 0.688227 63.5931 0.702461H65.9311ZM128.702 65.9311V63.593C128.717 64.3716 128.717 65.1511 128.702 65.9311ZM69.0082 128.564C69.8065 128.51 70.6032 128.44 71.3978 128.356C70.5739 128.45 69.7776 128.519 69.0082 128.564ZM63.4744 128.702H65.8113C65.0331 128.717 64.254 128.717 63.4744 128.702Z" fill="#C837AC"/>
<path fill-rule="evenodd" clip-rule="evenodd" d="M65.9311 0.702461C65.1511 0.688192 64.3716 0.688227 63.5931 0.702461H65.9311ZM128.702 65.9311V63.593C128.717 64.3716 128.717 65.1511 128.702 65.9311ZM69.0082 128.564C69.8065 128.51 70.6032 128.44 71.3978 128.356C70.5739 128.45 69.7776 128.519 69.0082 128.564ZM63.4744 128.702H65.8113C65.0331 128.717 64.254 128.717 63.4744 128.702Z" fill="url(#paint0_radial_2407_23)"/>
<path fill-rule="evenodd" clip-rule="evenodd" d="M65.9311 0.702461C65.1511 0.688192 64.3716 0.688227 63.5931 0.702461H65.9311ZM128.702 65.9311V63.593C128.717 64.3716 128.717 65.1511 128.702 65.9311ZM69.0082 128.564C69.8065 128.51 70.6032 128.44 71.3978 128.356C70.5739 128.45 69.7776 128.519 69.0082 128.564ZM63.4744 128.702H65.8113C65.0331 128.717 64.254 128.717 63.4744 128.702Z" fill="url(#paint1_radial_2407_23)"/>
<path d="M128.702 63.593V0.702461H65.9311C76.4082 0.894125 86.9852 3.66653 96.7025 9.27683C116.872 20.9219 128.306 41.8881 128.702 63.593Z" fill="black"/>
<path d="M71.3978 128.356C91.059 126.271 109.486 115.135 120.128 96.7025C125.738 86.9851 128.511 76.4081 128.702 65.9311V63.593C128.306 41.8881 116.872 20.9219 96.7025 9.27683C86.9852 3.66653 76.4082 0.894125 65.9311 0.702461H63.5931C41.8882 1.0993 20.922 12.5325 9.27689 32.7025C3.66655 42.4198 0.894148 52.9969 0.702515 63.474V89.9738C0.702519 114.946 42.1394 95.5153 53.2086 82.0794C54.5043 80.5068 54.98 77.9793 55.4516 75.4734C55.8915 73.1364 56.3278 70.8181 57.4224 69.3105C50.3101 67.698 41.2295 70.8853 34.0039 73.7358C32.7358 69.4239 32.3717 64.8506 32.9947 60.3257C33.6054 59.7083 34.7868 59.4107 35.9768 59.1109C37.1393 58.818 38.3101 58.5231 38.9653 57.9259C52.1435 45.9143 68.4314 33.8839 80.7025 36.9896C89.5277 46.0638 87.253 66.1848 83.4398 83.6033C83.2502 84.4692 83.5802 85.6306 83.9078 86.7838C84.2432 87.9643 84.5761 89.1362 84.3468 89.9738C80.7396 92.7758 76.597 94.7471 72.2287 95.8049C71.0845 88.1221 69.3045 78.6644 64.3519 73.3112C63.5936 75.013 61.804 76.55 60.0001 78.0994C58.0657 79.7609 56.1147 81.4366 55.4006 83.3449C49.2994 99.6491 41.6364 130.17 69.0082 128.564C69.8065 128.51 70.6032 128.44 71.3978 128.356Z" fill="black"/>
<path d="M53.2086 82.0794C42.1394 95.5153 0.702519 114.946 0.702515 89.9738V128.702H63.4744H65.8113C66.8791 128.683 67.9451 128.637 69.0082 128.564C41.6364 130.17 49.2994 99.6491 55.4006 83.3449C56.1147 81.4366 58.0657 79.7609 60.0001 78.0994C61.804 76.55 63.5936 75.013 64.3519 73.3112C69.3045 78.6644 71.0845 88.1221 72.2287 95.8049C76.597 94.7471 80.7396 92.7758 84.3468 89.9738C84.5761 89.1362 84.2432 87.9643 83.9078 86.7838C83.5802 85.6306 83.2502 84.4692 83.4398 83.6033C87.253 66.1848 89.5277 46.0638 80.7025 36.9896C68.4314 33.8839 52.1435 45.9143 38.9653 57.9259C38.3101 58.5231 37.1393 58.818 35.9768 59.1109C34.7868 59.4107 33.6054 59.7083 32.9947 60.3257C32.3717 64.8506 32.7358 69.4239 34.0039 73.7358C41.2295 70.8853 50.3101 67.698 57.4224 69.3105C56.3278 70.8181 55.8915 73.1364 55.4516 75.4734C54.98 77.9793 54.5043 80.5068 53.2086 82.0794Z" fill="#C837AC"/>
<path d="M53.2086 82.0794C42.1394 95.5153 0.702519 114.946 0.702515 89.9738V128.702H63.4744H65.8113C66.8791 128.683 67.9451 128.637 69.0082 128.564C41.6364 130.17 49.2994 99.6491 55.4006 83.3449C56.1147 81.4366 58.0657 79.7609 60.0001 78.0994C61.804 76.55 63.5936 75.013 64.3519 73.3112C69.3045 78.6644 71.0845 88.1221 72.2287 95.8049C76.597 94.7471 80.7396 92.7758 84.3468 89.9738C84.5761 89.1362 84.2432 87.9643 83.9078 86.7838C83.5802 85.6306 83.2502 84.4692 83.4398 83.6033C87.253 66.1848 89.5277 46.0638 80.7025 36.9896C68.4314 33.8839 52.1435 45.9143 38.9653 57.9259C38.3101 58.5231 37.1393 58.818 35.9768 59.1109C34.7868 59.4107 33.6054 59.7083 32.9947 60.3257C32.3717 64.8506 32.7358 69.4239 34.0039 73.7358C41.2295 70.8853 50.3101 67.698 57.4224 69.3105C56.3278 70.8181 55.8915 73.1364 55.4516 75.4734C54.98 77.9793 54.5043 80.5068 53.2086 82.0794Z" fill="url(#paint2_radial_2407_23)"/>
<path d="M53.2086 82.0794C42.1394 95.5153 0.702519 114.946 0.702515 89.9738V128.702H63.4744H65.8113C66.8791 128.683 67.9451 128.637 69.0082 128.564C41.6364 130.17 49.2994 99.6491 55.4006 83.3449C56.1147 81.4366 58.0657 79.7609 60.0001 78.0994C61.804 76.55 63.5936 75.013 64.3519 73.3112C69.3045 78.6644 71.0845 88.1221 72.2287 95.8049C76.597 94.7471 80.7396 92.7758 84.3468 89.9738C84.5761 89.1362 84.2432 87.9643 83.9078 86.7838C83.5802 85.6306 83.2502 84.4692 83.4398 83.6033C87.253 66.1848 89.5277 46.0638 80.7025 36.9896C68.4314 33.8839 52.1435 45.9143 38.9653 57.9259C38.3101 58.5231 37.1393 58.818 35.9768 59.1109C34.7868 59.4107 33.6054 59.7083 32.9947 60.3257C32.3717 64.8506 32.7358 69.4239 34.0039 73.7358C41.2295 70.8853 50.3101 67.698 57.4224 69.3105C56.3278 70.8181 55.8915 73.1364 55.4516 75.4734C54.98 77.9793 54.5043 80.5068 53.2086 82.0794Z" fill="url(#paint3_radial_2407_23)"/>
</g>
<defs>
<radialGradient id="paint0_radial_2407_23" cx="0" cy="0" r="1" gradientUnits="userSpaceOnUse" gradientTransform="translate(33.022 7.35278) rotate(46.5609) scale(139.17 199.003)">
<stop stop-color="#4A63C8"/>
<stop offset="0.258888" stop-color="#A73AA9"/>
<stop offset="1" stop-color="#A73AA9" stop-opacity="0"/>
</radialGradient>
<radialGradient id="paint1_radial_2407_23" cx="0" cy="0" r="1" gradientUnits="userSpaceOnUse" gradientTransform="translate(36.8243 105.481) rotate(-42.2003) scale(86.8279 82.1653)">
<stop offset="0.164832" stop-color="#FDCE53"/>
<stop offset="0.640444" stop-color="#F7504E"/>
<stop offset="1" stop-color="#F7504E" stop-opacity="0"/>
</radialGradient>
<radialGradient id="paint2_radial_2407_23" cx="0" cy="0" r="1" gradientUnits="userSpaceOnUse" gradientTransform="translate(33.022 7.35278) rotate(46.5609) scale(139.17 199.003)">
<stop stop-color="#4A63C8"/>
<stop offset="0.258888" stop-color="#A73AA9"/>
<stop offset="1" stop-color="#A73AA9" stop-opacity="0"/>
</radialGradient>
<radialGradient id="paint3_radial_2407_23" cx="0" cy="0" r="1" gradientUnits="userSpaceOnUse" gradientTransform="translate(36.8243 105.481) rotate(-42.2003) scale(86.8279 82.1653)">
<stop offset="0.164832" stop-color="#FDCE53"/>
<stop offset="0.640444" stop-color="#F7504E"/>
<stop offset="1" stop-color="#F7504E" stop-opacity="0"/>
</radialGradient>
<clipPath id="clip0_2407_23">
<rect x="0.702515" y="0.702515" width="128" height="128" rx="16" fill="white"/>
</clipPath>
</defs>
</svg>
