<svg width="512" height="512" viewBox="0 0 512 512" fill="none" xmlns="http://www.w3.org/2000/svg">
<rect width="512" height="512" fill="url(#paint0_linear_2437_62)"/>
<path d="M368.679 142.863C306.374 80.5581 205.213 80.7032 142.729 143.187C105.103 180.813 90.0814 232.464 97.6889 281.209C97.9963 283.18 98.3408 285.145 98.7222 287.104C112.44 354.126 181.139 315.829 216.549 290.531C224.559 284.809 227.503 268.516 235 262.437C218.904 253.977 194.945 255.83 175.677 258.062C175.421 246.846 177.514 235.58 181.955 225.065C185.658 222.896 193.925 225.176 197.906 223.113C237.473 202.607 284.549 184.053 312.11 199.431C327.488 226.993 308.935 274.068 288.429 313.636C286.366 317.617 288.645 325.883 286.477 329.586C275.962 334.027 264.696 336.12 253.479 335.865C255.712 316.596 257.565 292.638 249.104 276.541C243.026 284.038 226.733 286.983 221.01 294.993C195.713 330.402 157.416 399.101 224.437 412.819C226.396 413.201 228.362 413.545 230.332 413.853C279.078 421.46 330.729 406.439 368.354 368.813C430.838 306.329 430.983 205.168 368.679 142.863Z" fill="white"/>
<defs>
<linearGradient id="paint0_linear_2437_62" x1="512" y1="0" x2="0" y2="512" gradientUnits="userSpaceOnUse">
<stop stop-color="#13132C"/>
<stop offset="1" stop-color="#3F1E50"/>
</linearGradient>
</defs>
</svg>
