<svg width="20" height="20" viewBox="0 0 20 20" fill="none" xmlns="http://www.w3.org/2000/svg">
<path d="M15.1571 5.98958C15.1571 8.85416 12.8654 11.7187 10.0009 11.7187C7.13627 11.7187 4.8446 8.85416 4.8446 5.98958C4.8446 3.125 7.13627 0.833328 10.0009 0.833328C12.8654 0.833328 15.1571 3.125 15.1571 5.98958Z" fill="black" fill-opacity="0.85098" stroke="black" stroke-opacity="0.85098" stroke-width="1.5" stroke-linecap="round"/>
<path d="M9.58333 15C4.03271 15 1.17079 18.0836 0.892881 18.9362C0.853583 19.0568 0.946814 19.1667 1.07363 19.1667H11.6667C10.4167 18.3333 9.58333 17.0833 9.58333 15Z" fill="black" fill-opacity="0.85098"/>
<path d="M0.892881 18.9362L1.60596 19.1687L1.60596 19.1687L0.892881 18.9362ZM9.58333 15H10.3333V14.25H9.58333V15ZM11.6667 19.1667V19.9167C11.9972 19.9167 12.2887 19.7003 12.3845 19.384C12.4803 19.0677 12.3577 18.726 12.0827 18.5426L11.6667 19.1667ZM1.60596 19.1687C1.60544 19.1702 1.61199 19.1508 1.63485 19.1086C1.65674 19.0681 1.68893 19.0154 1.73364 18.9513C1.82326 18.8227 1.95332 18.6627 2.12751 18.4819C2.47552 18.1208 2.98183 17.6955 3.65031 17.2893C4.98289 16.4796 6.95215 15.75 9.58333 15.75V14.25C6.66389 14.25 4.42688 15.0622 2.87137 16.0074C2.0958 16.4787 1.48761 16.9842 1.04739 17.4411C0.630035 17.8742 0.30282 18.3264 0.1798 18.7038L1.60596 19.1687ZM0.1798 18.7038C-0.0433822 19.3886 0.523685 19.9167 1.07363 19.9167V18.4167C1.22864 18.4167 1.39171 18.4854 1.50513 18.6263C1.62485 18.775 1.6673 18.9805 1.60596 19.1687L0.1798 18.7038ZM1.07363 19.9167H11.6667V18.4167H1.07363V19.9167ZM8.83333 15C8.83333 16.1441 9.063 17.1037 9.4959 17.9077C9.929 18.712 10.5432 19.3191 11.2506 19.7907L12.0827 18.5426C11.5402 18.1809 11.1127 17.7463 10.8166 17.1965C10.5203 16.6463 10.3333 15.9392 10.3333 15H8.83333ZM1.07363 19.9167H1.07363V18.4167H1.07363V19.9167Z" fill="black" fill-opacity="0.85098"/>
<path d="M19.1666 16.25H13.3333M16.25 13.3333V19.1667" stroke="black" stroke-opacity="0.85098" stroke-width="1.5" stroke-linecap="round"/>
</svg>
