<svg width="20" height="20" viewBox="0 0 20 20" fill="none" xmlns="http://www.w3.org/2000/svg">
<path d="M15.1571 5.98958C15.1571 8.85416 12.8654 11.7187 10.0009 11.7187C7.13627 11.7187 4.8446 8.85416 4.8446 5.98958C4.8446 3.125 7.13627 0.833328 10.0009 0.833328C12.8654 0.833328 15.1571 3.125 15.1571 5.98958Z" fill="black" stroke="black" stroke-width="1.5" stroke-linecap="round"/>
<path d="M9.58333 15C4.03271 15 1.17079 18.0836 0.892881 18.9362C0.853583 19.0568 0.946814 19.1667 1.07363 19.1667H11C10 18 9.4 17 9.58333 15Z" fill="black"/>
<path d="M0.892881 18.9362L1.60596 19.1687L1.60596 19.1687L0.892881 18.9362ZM9.58333 15L10.3302 15.0685L10.4052 14.25H9.58333V15ZM11 19.1667V19.9167C11.2929 19.9167 11.559 19.7462 11.6814 19.4801C11.8038 19.214 11.7601 18.901 11.5694 18.6786L11 19.1667ZM1.60596 19.1687C1.60544 19.1702 1.61199 19.1508 1.63485 19.1086C1.65674 19.0681 1.68893 19.0154 1.73364 18.9513C1.82326 18.8227 1.95332 18.6627 2.12751 18.4819C2.47552 18.1208 2.98183 17.6955 3.65031 17.2893C4.98289 16.4796 6.95215 15.75 9.58333 15.75V14.25C6.66389 14.25 4.42688 15.0622 2.87137 16.0074C2.0958 16.4787 1.48761 16.9842 1.04739 17.4411C0.630035 17.8742 0.30282 18.3264 0.1798 18.7038L1.60596 19.1687ZM0.1798 18.7038C-0.0433822 19.3886 0.523685 19.9167 1.07363 19.9167V18.4167C1.22864 18.4167 1.39171 18.4854 1.50513 18.6263C1.62485 18.775 1.6673 18.9805 1.60596 19.1687L0.1798 18.7038ZM1.07363 19.9167H11V18.4167H1.07363V19.9167ZM8.83647 14.9315C8.7365 16.022 8.84644 16.8927 9.14925 17.6685C9.4479 18.4337 9.91416 19.0523 10.4306 19.6548L11.5694 18.6786C11.0858 18.1144 10.7521 17.6497 10.5466 17.1231C10.3452 16.6073 10.2468 15.978 10.3302 15.0685L8.83647 14.9315ZM1.07363 19.9167H1.07363V18.4167H1.07363V19.9167Z" fill="black"/>
<path d="M19.1666 16.25H13.3333M16.25 13.3333V19.1667" stroke="black" stroke-width="1.5" stroke-linecap="round"/>
</svg>
