<svg width="21" height="21" viewBox="0 0 21 21" fill="none" xmlns="http://www.w3.org/2000/svg">
<path fill-rule="evenodd" clip-rule="evenodd" d="M17.6343 17.4938C13.7291 21.399 7.39741 21.399 3.49216 17.4938C-0.413079 13.5885 -0.413079 7.25687 3.49216 3.35163C7.39741 -0.553612 13.7291 -0.553612 17.6343 3.35163C21.5395 7.25687 21.5395 13.5885 17.6343 17.4938ZM14.4916 6.49433C14.8844 6.88717 14.8844 7.67284 14.4916 8.06568L12.1346 10.4227L14.4916 12.7797C14.8844 13.1726 14.8844 13.9582 14.4916 14.3511C14.0988 14.7439 13.3131 14.7439 12.9203 14.3511L10.5632 11.994L8.20621 14.3511C7.81337 14.7439 7.0277 14.7439 6.63486 14.3511C6.24202 13.9582 6.24202 13.1726 6.63486 12.7797L8.99188 10.4227L6.63486 8.06568C6.24202 7.67284 6.24202 6.88717 6.63486 6.49433C7.0277 6.10149 7.81337 6.10149 8.20621 6.49433L10.5632 8.85135L12.9203 6.49433C13.3131 6.10149 14.0988 6.10149 14.4916 6.49433Z" fill="black" fill-opacity="0.94902"/>
</svg>
