<svg width="21" height="21" viewBox="0 0 21 21" fill="none" xmlns="http://www.w3.org/2000/svg">
<path fill-rule="evenodd" clip-rule="evenodd" d="M17.6343 17.6654C13.7291 21.5706 7.39741 21.5706 3.49216 17.6654C-0.413079 13.7601 -0.413079 7.42846 3.49216 3.52322C7.39741 -0.382027 13.7291 -0.382027 17.6343 3.52322C21.5395 7.42846 21.5395 13.7601 17.6343 17.6654ZM14.4916 6.66591C14.8844 7.05875 14.8844 7.84442 14.4916 8.23726L12.1346 10.5943L14.4916 12.9513C14.8844 13.3441 14.8844 14.1298 14.4916 14.5227C14.0988 14.9155 13.3131 14.9155 12.9203 14.5227L10.5632 12.1656L8.20621 14.5227C7.81337 14.9155 7.0277 14.9155 6.63486 14.5227C6.24202 14.1298 6.24202 13.3441 6.63486 12.9513L8.99188 10.5943L6.63486 8.23726C6.24202 7.84442 6.24202 7.05875 6.63486 6.66591C7.0277 6.27308 7.81337 6.27308 8.20621 6.66591L10.5632 9.02294L12.9203 6.66591C13.3131 6.27308 14.0988 6.27308 14.4916 6.66591Z" fill="black"/>
</svg>
