<svg width="509" height="151" viewBox="0 0 509 151" fill="none" xmlns="http://www.w3.org/2000/svg">
<path d="M26.3923 0.800049C33.1763 0.800049 38.8723 3.00805 43.4803 7.42405C48.0883 11.84 50.3923 17.4721 50.3923 24.3201C50.3923 31.1681 48.0883 36.8001 43.4803 41.2161C38.8723 45.6321 33.1763 47.8401 26.3923 47.8401H17.4643V68.0001H0.280273V0.800049H26.3923ZM26.3923 31.5201C28.3123 31.5201 29.9123 30.8481 31.1923 29.5041C32.5363 28.1601 33.2083 26.4321 33.2083 24.3201C33.2083 22.2081 32.5363 20.5121 31.1923 19.2321C29.9123 17.8881 28.3123 17.216 26.3923 17.216H17.4643V31.5201H26.3923Z" fill="black"/>
<path d="M77.6863 69.3441C70.5823 69.3441 64.5343 66.9121 59.5423 62.0481C54.5503 57.1201 52.0543 51.1041 52.0543 44.0001C52.0543 36.8961 54.5503 30.9121 59.5423 26.0481C64.5343 21.1201 70.5823 18.6561 77.6863 18.6561C84.8543 18.6561 90.9023 21.1201 95.8303 26.0481C100.822 30.9121 103.318 36.8961 103.318 44.0001C103.318 51.1041 100.822 57.1201 95.8303 62.0481C90.9023 66.9121 84.8543 69.3441 77.6863 69.3441ZM77.6863 53.9841C80.5023 53.9841 82.8063 53.0561 84.5983 51.2001C86.4543 49.3441 87.3823 46.9441 87.3823 44.0001C87.3823 41.0561 86.4543 38.6561 84.5983 36.8001C82.8063 34.9441 80.5023 34.0161 77.6863 34.0161C74.9343 34.0161 72.6303 34.9441 70.7743 36.8001C68.9823 38.6561 68.0863 41.0561 68.0863 44.0001C68.0863 46.9441 68.9823 49.3441 70.7743 51.2001C72.6303 53.0561 74.9343 53.9841 77.6863 53.9841Z" fill="black"/>
<path d="M124.466 34.0161C124.466 34.9121 125.266 35.6481 126.866 36.2241C128.53 36.8001 130.514 37.3441 132.818 37.8561C135.186 38.3681 137.522 39.1041 139.826 40.0641C142.194 40.9601 144.178 42.5281 145.778 44.7681C147.442 47.0081 148.274 49.8241 148.274 53.2161C148.274 58.7201 146.226 62.7841 142.13 65.4081C138.034 68.0321 133.17 69.3441 127.538 69.3441C116.786 69.3441 109.618 65.5361 106.034 57.9201L119.954 50.9121C121.17 54.4321 123.666 56.1921 127.442 56.1921C130.322 56.1921 131.762 55.3281 131.762 53.6001C131.762 52.7041 130.962 51.9681 129.362 51.3921C127.762 50.8161 125.81 50.2401 123.506 49.6641C121.202 49.0881 118.898 48.3201 116.594 47.3601C114.29 46.4001 112.338 44.8641 110.738 42.7521C109.138 40.5761 108.338 37.92 108.338 34.784C108.338 29.664 110.226 25.6961 114.002 22.8801C117.778 20.0641 122.322 18.6561 127.634 18.6561C137.106 18.6561 143.698 22.3681 147.41 29.792L133.97 35.8401C132.562 33.0881 130.578 31.7121 128.018 31.7121C125.65 31.7121 124.466 32.4801 124.466 34.0161Z" fill="black"/>
<path d="M182.837 35.2641H172.853V49.1841C172.853 51.2961 173.621 52.6081 175.157 53.1201C176.693 53.6321 179.253 53.7921 182.837 53.6001V68.0001C173.301 69.1521 166.581 68.2881 162.677 65.4081C158.837 62.4641 156.917 57.1841 156.917 49.5681V35.2641H149.717V20.0001H156.917V11.3601L172.853 6.56005V20.0001H182.837V35.2641Z" fill="black"/>
<path d="M248.32 68.0001L236.608 46.3041H230.464V68.0001H213.28V0.800049H240.16C247.008 0.800049 252.736 3.00805 257.344 7.42405C262.016 11.7761 264.352 17.3121 264.352 24.0321C264.352 28.0641 263.328 31.7761 261.28 35.1681C259.232 38.4961 256.448 41.1521 252.928 43.1361L266.752 68.0001H248.32ZM230.464 16.6401V31.7121H239.968C242.08 31.7761 243.808 31.1041 245.152 29.6961C246.496 28.2881 247.168 26.4641 247.168 24.2241C247.168 21.9841 246.496 20.1601 245.152 18.7521C243.808 17.3441 242.08 16.6401 239.968 16.6401H230.464Z" fill="black"/>
<path d="M348.903 69.3441C341.607 69.3441 335.527 66.9121 330.663 62.0481C325.799 57.1841 323.367 51.1681 323.367 44.0001C323.367 36.8321 325.799 30.8161 330.663 25.9521C335.527 21.0881 341.607 18.6561 348.903 18.6561C353.639 18.6561 357.927 19.7761 361.767 22.0161C365.671 24.2561 368.679 27.264 370.791 31.0401L357.159 38.9121C355.431 35.7761 352.647 34.208 348.807 34.208C346.119 34.208 343.879 35.136 342.087 36.9921C340.295 38.784 339.399 41.1201 339.399 44.0001C339.399 46.8801 340.295 49.2481 342.087 51.1041C343.879 52.8961 346.119 53.7921 348.807 53.7921C352.775 53.7921 355.559 52.1921 357.159 48.9921L370.791 56.8641C368.679 60.7041 365.671 63.7441 361.767 65.9841C357.927 68.2241 353.639 69.3441 348.903 69.3441Z" fill="black"/>
<path d="M423.345 68.0001H405.489L391.857 47.5521V68.0001H375.921V0.800049H391.857V40.0641L404.241 20.0001H422.673L406.545 44.0001L423.345 68.0001Z" fill="black"/>
<path d="M439.066 49.8561C440.666 53.7601 444.25 55.7121 449.818 55.7121C453.274 55.7121 456.186 54.5921 458.554 52.3521L470.074 60.4161C465.338 66.3681 458.458 69.3441 449.434 69.3441C441.306 69.3441 434.778 66.9761 429.85 62.2401C424.986 57.4401 422.554 51.3921 422.554 44.0961C422.554 36.8641 424.954 30.8161 429.754 25.9521C434.554 21.0881 440.666 18.6561 448.09 18.6561C455.258 18.6561 461.178 21.0561 465.85 25.8561C470.522 30.6561 472.858 36.6721 472.858 43.9041C472.858 46.0161 472.634 48.0001 472.186 49.8561H439.066ZM438.874 38.8161H457.306C456.026 34.3361 453.018 32.0961 448.282 32.0961C443.354 32.0961 440.218 34.3361 438.874 38.8161Z" fill="black"/>
<path d="M508.243 35.2641H498.259V49.1841C498.259 51.2961 499.027 52.6081 500.563 53.1201C502.099 53.6321 504.659 53.7921 508.243 53.6001V68.0001C498.707 69.1521 491.987 68.2881 488.083 65.4081C484.243 62.4641 482.323 57.1841 482.323 49.5681V35.2641H475.123V20.0001H482.323V11.3601L498.259 6.56005V20.0001H508.243V35.2641Z" fill="black"/>
<path d="M46.6002 117H50.3202L42.1602 138.24C41.3069 140.507 40.1069 142.227 38.5602 143.4C37.0402 144.6 35.2802 145.133 33.2802 145V141.76C35.7336 141.947 37.5336 140.587 38.6802 137.68L39.0402 136.92L30.3202 117H34.0402L40.8402 132.68L46.6002 117ZM69.3249 134.48C67.2716 136.507 64.7783 137.52 61.8449 137.52C58.9116 137.52 56.4183 136.507 54.3649 134.48C52.3383 132.453 51.3249 129.96 51.3249 127C51.3249 124.04 52.3383 121.547 54.3649 119.52C56.4183 117.493 58.9116 116.48 61.8449 116.48C64.7783 116.48 67.2716 117.493 69.3249 119.52C71.3783 121.547 72.4049 124.04 72.4049 127C72.4049 129.96 71.3783 132.453 69.3249 134.48ZM61.8449 134.12C63.8449 134.12 65.5249 133.44 66.8849 132.08C68.2449 130.72 68.9249 129.027 68.9249 127C68.9249 124.973 68.2449 123.28 66.8849 121.92C65.5249 120.56 63.8449 119.88 61.8449 119.88C59.8716 119.88 58.2049 120.56 56.8449 121.92C55.4849 123.28 54.8049 124.973 54.8049 127C54.8049 129.027 55.4849 130.72 56.8449 132.08C58.2049 133.44 59.8716 134.12 61.8449 134.12ZM90.3074 117H93.7874V137H90.3074V134.12C88.8941 136.387 86.7341 137.52 83.8274 137.52C81.4808 137.52 79.6008 136.787 78.1874 135.32C76.7741 133.827 76.0674 131.813 76.0674 129.28V117H79.5474V129.08C79.5474 130.707 79.9874 131.973 80.8674 132.88C81.7474 133.76 82.9608 134.2 84.5074 134.2C86.2408 134.2 87.6408 133.667 88.7074 132.6C89.7741 131.507 90.3074 129.84 90.3074 127.6V117ZM102.566 120.36C103.712 117.88 105.792 116.64 108.806 116.64V120.28C107.099 120.2 105.632 120.653 104.406 121.64C103.179 122.627 102.566 124.213 102.566 126.4V137H99.0856V117H102.566V120.36ZM125.211 122.4C125.211 123.173 125.597 123.8 126.371 124.28C127.144 124.733 128.077 125.107 129.171 125.4C130.264 125.667 131.357 125.987 132.451 126.36C133.544 126.707 134.477 127.32 135.251 128.2C136.024 129.053 136.411 130.16 136.411 131.52C136.411 133.333 135.704 134.787 134.291 135.88C132.904 136.973 131.117 137.52 128.931 137.52C126.984 137.52 125.317 137.093 123.931 136.24C122.544 135.387 121.557 134.253 120.971 132.84L123.971 131.12C124.291 132.08 124.891 132.84 125.771 133.4C126.651 133.96 127.704 134.24 128.931 134.24C130.077 134.24 131.024 134.027 131.771 133.6C132.517 133.147 132.891 132.453 132.891 131.52C132.891 130.747 132.504 130.133 131.731 129.68C130.957 129.2 130.024 128.827 128.931 128.56C127.837 128.267 126.744 127.933 125.651 127.56C124.557 127.187 123.624 126.573 122.851 125.72C122.077 124.867 121.691 123.773 121.691 122.44C121.691 120.707 122.357 119.28 123.691 118.16C125.051 117.04 126.744 116.48 128.771 116.48C130.397 116.48 131.837 116.853 133.091 117.6C134.371 118.32 135.331 119.333 135.971 120.64L133.051 122.28C132.331 120.573 130.904 119.72 128.771 119.72C127.784 119.72 126.944 119.96 126.251 120.44C125.557 120.893 125.211 121.547 125.211 122.4ZM156.864 134.48C154.811 136.507 152.317 137.52 149.384 137.52C146.451 137.52 143.957 136.507 141.904 134.48C139.877 132.453 138.864 129.96 138.864 127C138.864 124.04 139.877 121.547 141.904 119.52C143.957 117.493 146.451 116.48 149.384 116.48C152.317 116.48 154.811 117.493 156.864 119.52C158.917 121.547 159.944 124.04 159.944 127C159.944 129.96 158.917 132.453 156.864 134.48ZM149.384 134.12C151.384 134.12 153.064 133.44 154.424 132.08C155.784 130.72 156.464 129.027 156.464 127C156.464 124.973 155.784 123.28 154.424 121.92C153.064 120.56 151.384 119.88 149.384 119.88C147.411 119.88 145.744 120.56 144.384 121.92C143.024 123.28 142.344 124.973 142.344 127C142.344 129.027 143.024 130.72 144.384 132.08C145.744 133.44 147.411 134.12 149.384 134.12ZM173.446 137.52C170.433 137.52 167.926 136.52 165.926 134.52C163.926 132.493 162.926 129.987 162.926 127C162.926 124.013 163.926 121.52 165.926 119.52C167.926 117.493 170.433 116.48 173.446 116.48C175.42 116.48 177.193 116.96 178.766 117.92C180.34 118.853 181.513 120.12 182.286 121.72L179.366 123.4C178.86 122.333 178.073 121.48 177.006 120.84C175.966 120.2 174.78 119.88 173.446 119.88C171.446 119.88 169.766 120.56 168.406 121.92C167.073 123.28 166.406 124.973 166.406 127C166.406 129 167.073 130.68 168.406 132.04C169.766 133.4 171.446 134.08 173.446 134.08C174.78 134.08 175.98 133.773 177.046 133.16C178.113 132.52 178.926 131.667 179.486 130.6L182.446 132.32C181.593 133.893 180.366 135.16 178.766 136.12C177.166 137.053 175.393 137.52 173.446 137.52ZM187.642 113.36C186.976 113.36 186.416 113.133 185.962 112.68C185.509 112.227 185.282 111.68 185.282 111.04C185.282 110.4 185.509 109.853 185.962 109.4C186.416 108.92 186.976 108.68 187.642 108.68C188.282 108.68 188.829 108.92 189.282 109.4C189.736 109.853 189.962 110.4 189.962 111.04C189.962 111.68 189.736 112.227 189.282 112.68C188.829 113.133 188.282 113.36 187.642 113.36ZM185.882 137V117H189.362V137H185.882ZM211.231 117H214.711V137H211.231V133.56C209.498 136.2 206.978 137.52 203.671 137.52C200.871 137.52 198.485 136.507 196.511 134.48C194.538 132.427 193.551 129.933 193.551 127C193.551 124.067 194.538 121.587 196.511 119.56C198.485 117.507 200.871 116.48 203.671 116.48C206.978 116.48 209.498 117.8 211.231 120.44V117ZM204.111 134.16C206.138 134.16 207.831 133.48 209.191 132.12C210.551 130.733 211.231 129.027 211.231 127C211.231 124.973 210.551 123.28 209.191 121.92C207.831 120.533 206.138 119.84 204.111 119.84C202.111 119.84 200.431 120.533 199.071 121.92C197.711 123.28 197.031 124.973 197.031 127C197.031 129.027 197.711 130.733 199.071 132.12C200.431 133.48 202.111 134.16 204.111 134.16ZM219.984 137V107.8H223.464V137H219.984ZM231.734 122.4C231.734 123.173 232.121 123.8 232.894 124.28C233.667 124.733 234.601 125.107 235.694 125.4C236.787 125.667 237.881 125.987 238.974 126.36C240.067 126.707 241.001 127.32 241.774 128.2C242.547 129.053 242.934 130.16 242.934 131.52C242.934 133.333 242.227 134.787 240.814 135.88C239.427 136.973 237.641 137.52 235.454 137.52C233.507 137.52 231.841 137.093 230.454 136.24C229.067 135.387 228.081 134.253 227.494 132.84L230.494 131.12C230.814 132.08 231.414 132.84 232.294 133.4C233.174 133.96 234.227 134.24 235.454 134.24C236.601 134.24 237.547 134.027 238.294 133.6C239.041 133.147 239.414 132.453 239.414 131.52C239.414 130.747 239.027 130.133 238.254 129.68C237.481 129.2 236.547 128.827 235.454 128.56C234.361 128.267 233.267 127.933 232.174 127.56C231.081 127.187 230.147 126.573 229.374 125.72C228.601 124.867 228.214 123.773 228.214 122.44C228.214 120.707 228.881 119.28 230.214 118.16C231.574 117.04 233.267 116.48 235.294 116.48C236.921 116.48 238.361 116.853 239.614 117.6C240.894 118.32 241.854 119.333 242.494 120.64L239.574 122.28C238.854 120.573 237.427 119.72 235.294 119.72C234.307 119.72 233.467 119.96 232.774 120.44C232.081 120.893 231.734 121.547 231.734 122.4ZM273.934 134.48C271.881 136.507 269.388 137.52 266.454 137.52C263.521 137.52 261.028 136.507 258.974 134.48C256.948 132.453 255.934 129.96 255.934 127C255.934 124.04 256.948 121.547 258.974 119.52C261.028 117.493 263.521 116.48 266.454 116.48C269.388 116.48 271.881 117.493 273.934 119.52C275.988 121.547 277.014 124.04 277.014 127C277.014 129.96 275.988 132.453 273.934 134.48ZM266.454 134.12C268.454 134.12 270.134 133.44 271.494 132.08C272.854 130.72 273.534 129.027 273.534 127C273.534 124.973 272.854 123.28 271.494 121.92C270.134 120.56 268.454 119.88 266.454 119.88C264.481 119.88 262.814 120.56 261.454 121.92C260.094 123.28 259.414 124.973 259.414 127C259.414 129.027 260.094 130.72 261.454 132.08C262.814 133.44 264.481 134.12 266.454 134.12ZM291.077 116.48C293.423 116.48 295.303 117.227 296.717 118.72C298.13 120.187 298.837 122.187 298.837 124.72V137H295.357V124.92C295.357 123.293 294.917 122.04 294.037 121.16C293.157 120.253 291.943 119.8 290.397 119.8C288.663 119.8 287.263 120.347 286.197 121.44C285.13 122.507 284.597 124.16 284.597 126.4V137H281.117V117H284.597V119.88C286.01 117.613 288.17 116.48 291.077 116.48ZM330.255 117H333.735V137H330.255V133.56C328.522 136.2 326.002 137.52 322.695 137.52C319.895 137.52 317.508 136.507 315.535 134.48C313.562 132.427 312.575 129.933 312.575 127C312.575 124.067 313.562 121.587 315.535 119.56C317.508 117.507 319.895 116.48 322.695 116.48C326.002 116.48 328.522 117.8 330.255 120.44V117ZM323.135 134.16C325.162 134.16 326.855 133.48 328.215 132.12C329.575 130.733 330.255 129.027 330.255 127C330.255 124.973 329.575 123.28 328.215 121.92C326.855 120.533 325.162 119.84 323.135 119.84C321.135 119.84 319.455 120.533 318.095 121.92C316.735 123.28 316.055 124.973 316.055 127C316.055 129.027 316.735 130.733 318.095 132.12C319.455 133.48 321.135 134.16 323.135 134.16ZM352.807 117H356.287V137H352.807V134.12C351.394 136.387 349.234 137.52 346.327 137.52C343.981 137.52 342.101 136.787 340.687 135.32C339.274 133.827 338.567 131.813 338.567 129.28V117H342.047V129.08C342.047 130.707 342.487 131.973 343.367 132.88C344.247 133.76 345.461 134.2 347.007 134.2C348.741 134.2 350.141 133.667 351.207 132.6C352.274 131.507 352.807 129.84 352.807 127.6V117ZM372.466 120.36H367.146V131.2C367.146 132.187 367.332 132.893 367.706 133.32C368.106 133.72 368.706 133.933 369.506 133.96C370.306 133.96 371.292 133.933 372.466 133.88V137C369.426 137.4 367.199 137.16 365.786 136.28C364.372 135.373 363.666 133.68 363.666 131.2V120.36H359.706V117H363.666V112.44L367.146 111.4V117H372.466V120.36ZM392.45 134.48C390.397 136.507 387.903 137.52 384.97 137.52C382.037 137.52 379.543 136.507 377.49 134.48C375.463 132.453 374.45 129.96 374.45 127C374.45 124.04 375.463 121.547 377.49 119.52C379.543 117.493 382.037 116.48 384.97 116.48C387.903 116.48 390.397 117.493 392.45 119.52C394.503 121.547 395.53 124.04 395.53 127C395.53 129.96 394.503 132.453 392.45 134.48ZM384.97 134.12C386.97 134.12 388.65 133.44 390.01 132.08C391.37 130.72 392.05 129.027 392.05 127C392.05 124.973 391.37 123.28 390.01 121.92C388.65 120.56 386.97 119.88 384.97 119.88C382.997 119.88 381.33 120.56 379.97 121.92C378.61 123.28 377.93 124.973 377.93 127C377.93 129.027 378.61 130.72 379.97 132.08C381.33 133.44 382.997 134.12 384.97 134.12ZM410.672 116.48C413.472 116.48 415.859 117.507 417.832 119.56C419.806 121.587 420.792 124.067 420.792 127C420.792 129.933 419.806 132.427 417.832 134.48C415.859 136.507 413.472 137.52 410.672 137.52C407.366 137.52 404.846 136.2 403.112 133.56V145H399.632V117H403.112V120.44C404.846 117.8 407.366 116.48 410.672 116.48ZM410.232 134.16C412.232 134.16 413.912 133.48 415.272 132.12C416.632 130.733 417.312 129.027 417.312 127C417.312 124.973 416.632 123.28 415.272 121.92C413.912 120.533 412.232 119.84 410.232 119.84C408.206 119.84 406.512 120.533 405.152 121.92C403.792 123.28 403.112 124.973 403.112 127C403.112 129.027 403.792 130.733 405.152 132.12C406.512 133.48 408.206 134.16 410.232 134.16ZM426.705 113.36C426.038 113.36 425.478 113.133 425.025 112.68C424.572 112.227 424.345 111.68 424.345 111.04C424.345 110.4 424.572 109.853 425.025 109.4C425.478 108.92 426.038 108.68 426.705 108.68C427.345 108.68 427.892 108.92 428.345 109.4C428.798 109.853 429.025 110.4 429.025 111.04C429.025 111.68 428.798 112.227 428.345 112.68C427.892 113.133 427.345 113.36 426.705 113.36ZM424.945 137V117H428.425V137H424.945ZM433.734 137V107.8H437.214V137H433.734ZM459.403 134.48C457.35 136.507 454.856 137.52 451.923 137.52C448.99 137.52 446.496 136.507 444.443 134.48C442.416 132.453 441.403 129.96 441.403 127C441.403 124.04 442.416 121.547 444.443 119.52C446.496 117.493 448.99 116.48 451.923 116.48C454.856 116.48 457.35 117.493 459.403 119.52C461.456 121.547 462.483 124.04 462.483 127C462.483 129.96 461.456 132.453 459.403 134.48ZM451.923 134.12C453.923 134.12 455.603 133.44 456.963 132.08C458.323 130.72 459.003 129.027 459.003 127C459.003 124.973 458.323 123.28 456.963 121.92C455.603 120.56 453.923 119.88 451.923 119.88C449.95 119.88 448.283 120.56 446.923 121.92C445.563 123.28 444.883 124.973 444.883 127C444.883 129.027 445.563 130.72 446.923 132.08C448.283 133.44 449.95 134.12 451.923 134.12ZM477.036 120.36H471.716V131.2C471.716 132.187 471.903 132.893 472.276 133.32C472.676 133.72 473.276 133.933 474.076 133.96C474.876 133.96 475.863 133.933 477.036 133.88V137C473.996 137.4 471.769 137.16 470.356 136.28C468.943 135.373 468.236 133.68 468.236 131.2V120.36H464.276V117H468.236V112.44L471.716 111.4V117H477.036V120.36Z" fill="url(#paint0_linear_2395_972)"/>
<path d="M305.948 23.1143C293.991 16.2107 278.701 20.3076 271.797 32.2649C267.64 39.4652 267.472 47.8739 270.607 54.9322C270.734 55.2175 270.866 55.5006 271.003 55.7812C275.806 65.3545 284.634 56.8011 288.958 51.5528C289.936 50.3655 289.718 47.7853 290.604 46.5649C287.826 45.935 284.279 47.1801 281.456 48.2935C280.961 46.6092 280.819 44.8227 281.062 43.0552C281.534 42.5785 282.877 42.5898 283.395 42.1178C288.542 37.4258 294.905 32.7264 299.698 33.9396C303.145 37.4842 302.257 45.3439 300.767 52.148C300.618 52.8326 301.299 53.9897 301.122 54.6365C299.713 55.731 298.094 56.5011 296.388 56.9143C295.941 53.9132 295.246 50.2188 293.311 48.1277C292.697 49.5052 290.354 50.6064 289.815 52.0471C287.431 58.4159 284.438 70.338 295.13 69.7108C295.442 69.6895 295.753 69.6624 296.063 69.6295C303.744 68.8153 310.942 64.4652 315.099 57.2649C322.002 45.3076 317.905 30.0178 305.948 23.1143Z" fill="black"/>
<defs>
<linearGradient id="paint0_linear_2395_972" x1="30.0002" y1="151" x2="119.831" y2="-54.7864" gradientUnits="userSpaceOnUse">
<stop stop-color="#9B51E0"/>
<stop offset="1" stop-color="#3DA5E0"/>
</linearGradient>
</defs>
</svg>
