<svg width="509" height="151" viewBox="0 0 509 151" fill="none" xmlns="http://www.w3.org/2000/svg">
<path d="M26.392 0.799988C33.176 0.799988 38.872 3.00799 43.48 7.42399C48.088 11.84 50.392 17.472 50.392 24.32C50.392 31.168 48.088 36.8 43.48 41.216C38.872 45.632 33.176 47.84 26.392 47.84H17.464V68H0.279999V0.799988H26.392ZM26.392 31.52C28.312 31.52 29.912 30.848 31.192 29.504C32.536 28.16 33.208 26.432 33.208 24.32C33.208 22.208 32.536 20.512 31.192 19.232C29.912 17.888 28.312 17.216 26.392 17.216H17.464V31.52H26.392Z" fill="black"/>
<path d="M77.686 69.344C70.582 69.344 64.534 66.912 59.542 62.048C54.55 57.12 52.054 51.104 52.054 44C52.054 36.896 54.55 30.912 59.542 26.048C64.534 21.12 70.582 18.656 77.686 18.656C84.854 18.656 90.902 21.12 95.83 26.048C100.822 30.912 103.318 36.896 103.318 44C103.318 51.104 100.822 57.12 95.83 62.048C90.902 66.912 84.854 69.344 77.686 69.344ZM77.686 53.984C80.502 53.984 82.806 53.056 84.598 51.2C86.454 49.344 87.382 46.944 87.382 44C87.382 41.056 86.454 38.656 84.598 36.8C82.806 34.944 80.502 34.016 77.686 34.016C74.934 34.016 72.63 34.944 70.774 36.8C68.982 38.656 68.086 41.056 68.086 44C68.086 46.944 68.982 49.344 70.774 51.2C72.63 53.056 74.934 53.984 77.686 53.984Z" fill="black"/>
<path d="M124.466 34.016C124.466 34.912 125.266 35.648 126.866 36.224C128.53 36.8 130.514 37.344 132.818 37.856C135.186 38.368 137.522 39.104 139.826 40.064C142.194 40.96 144.178 42.528 145.778 44.768C147.442 47.008 148.274 49.824 148.274 53.216C148.274 58.72 146.226 62.784 142.13 65.408C138.034 68.032 133.17 69.344 127.538 69.344C116.786 69.344 109.618 65.536 106.034 57.92L119.954 50.912C121.17 54.432 123.666 56.192 127.442 56.192C130.322 56.192 131.762 55.328 131.762 53.6C131.762 52.704 130.962 51.968 129.362 51.392C127.762 50.816 125.81 50.24 123.506 49.664C121.202 49.088 118.898 48.32 116.594 47.36C114.29 46.4 112.338 44.864 110.738 42.752C109.138 40.576 108.338 37.92 108.338 34.784C108.338 29.664 110.226 25.696 114.002 22.88C117.778 20.064 122.322 18.656 127.634 18.656C137.106 18.656 143.698 22.368 147.41 29.792L133.97 35.84C132.562 33.088 130.578 31.712 128.018 31.712C125.65 31.712 124.466 32.48 124.466 34.016Z" fill="black"/>
<path d="M182.837 35.264H172.853V49.184C172.853 51.296 173.621 52.608 175.157 53.12C176.693 53.632 179.253 53.792 182.837 53.6V68C173.301 69.152 166.581 68.288 162.677 65.408C158.837 62.464 156.917 57.184 156.917 49.568V35.264H149.717V20H156.917V11.36L172.853 6.55999V20H182.837V35.264Z" fill="black"/>
<path d="M248.32 68L236.608 46.304H230.464V68H213.28V0.799988H240.16C247.008 0.799988 252.736 3.00799 257.344 7.42399C262.016 11.776 264.352 17.312 264.352 24.032C264.352 28.064 263.328 31.776 261.28 35.168C259.232 38.496 256.448 41.152 252.928 43.136L266.752 68H248.32ZM230.464 16.64V31.712H239.968C242.08 31.776 243.808 31.104 245.152 29.696C246.496 28.288 247.168 26.464 247.168 24.224C247.168 21.984 246.496 20.16 245.152 18.752C243.808 17.344 242.08 16.64 239.968 16.64H230.464Z" fill="black"/>
<path d="M348.902 69.344C341.606 69.344 335.527 66.912 330.663 62.048C325.799 57.184 323.366 51.168 323.366 44C323.366 36.832 325.799 30.816 330.663 25.952C335.527 21.088 341.606 18.656 348.902 18.656C353.638 18.656 357.927 19.776 361.767 22.016C365.671 24.256 368.678 27.264 370.79 31.04L357.159 38.912C355.431 35.776 352.646 34.208 348.806 34.208C346.118 34.208 343.878 35.136 342.086 36.992C340.294 38.784 339.398 41.12 339.398 44C339.398 46.88 340.294 49.248 342.086 51.104C343.878 52.896 346.118 53.792 348.806 53.792C352.774 53.792 355.559 52.192 357.159 48.992L370.79 56.864C368.678 60.704 365.671 63.744 361.767 65.984C357.927 68.224 353.638 69.344 348.902 69.344Z" fill="black"/>
<path d="M423.345 68H405.488L391.857 47.552V68H375.921V0.799988H391.857V40.064L404.241 20H422.673L406.544 44L423.345 68Z" fill="black"/>
<path d="M439.066 49.856C440.666 53.76 444.25 55.712 449.818 55.712C453.274 55.712 456.186 54.592 458.554 52.352L470.074 60.416C465.338 66.368 458.458 69.344 449.434 69.344C441.306 69.344 434.778 66.976 429.85 62.24C424.986 57.44 422.554 51.392 422.554 44.096C422.554 36.864 424.954 30.816 429.754 25.952C434.554 21.088 440.666 18.656 448.09 18.656C455.258 18.656 461.178 21.056 465.85 25.856C470.522 30.656 472.858 36.672 472.858 43.904C472.858 46.016 472.634 48 472.186 49.856H439.066ZM438.874 38.816H457.306C456.026 34.336 453.018 32.096 448.282 32.096C443.354 32.096 440.218 34.336 438.874 38.816Z" fill="black"/>
<path d="M508.243 35.264H498.259V49.184C498.259 51.296 499.027 52.608 500.563 53.12C502.099 53.632 504.659 53.792 508.243 53.6V68C498.707 69.152 491.987 68.288 488.083 65.408C484.243 62.464 482.323 57.184 482.323 49.568V35.264H475.123V20H482.323V11.36L498.259 6.55999V20H508.243V35.264Z" fill="black"/>
<path fill-rule="evenodd" clip-rule="evenodd" d="M274.886 62.048C279.878 66.912 285.926 69.344 293.03 69.344C300.198 69.344 306.246 66.912 311.174 62.048C316.166 57.12 318.662 51.104 318.662 44C318.662 42.6429 318.571 41.3267 318.388 40.0514C316.127 49.2094 307.857 56 298 56C286.402 56 277 46.598 277 35C277 29.5034 279.112 24.5001 282.568 20.757C279.777 21.9836 277.216 23.7472 274.886 26.048C269.894 30.912 267.398 36.896 267.398 44C267.398 51.104 269.894 57.12 274.886 62.048Z" fill="black"/>
<circle cx="301.5" cy="27.5" r="6.5" fill="black"/>
<path d="M46.6 117H50.32L42.16 138.24C41.3067 140.507 40.1067 142.227 38.56 143.4C37.04 144.6 35.28 145.133 33.28 145V141.76C35.7333 141.947 37.5333 140.587 38.68 137.68L39.04 136.92L30.32 117H34.04L40.84 132.68L46.6 117ZM69.3247 134.48C67.2714 136.507 64.778 137.52 61.8447 137.52C58.9114 137.52 56.418 136.507 54.3647 134.48C52.338 132.453 51.3247 129.96 51.3247 127C51.3247 124.04 52.338 121.547 54.3647 119.52C56.418 117.493 58.9114 116.48 61.8447 116.48C64.778 116.48 67.2714 117.493 69.3247 119.52C71.378 121.547 72.4047 124.04 72.4047 127C72.4047 129.96 71.378 132.453 69.3247 134.48ZM61.8447 134.12C63.8447 134.12 65.5247 133.44 66.8847 132.08C68.2447 130.72 68.9247 129.027 68.9247 127C68.9247 124.973 68.2447 123.28 66.8847 121.92C65.5247 120.56 63.8447 119.88 61.8447 119.88C59.8714 119.88 58.2047 120.56 56.8447 121.92C55.4847 123.28 54.8047 124.973 54.8047 127C54.8047 129.027 55.4847 130.72 56.8447 132.08C58.2047 133.44 59.8714 134.12 61.8447 134.12ZM90.3072 117H93.7872V137H90.3072V134.12C88.8939 136.387 86.7339 137.52 83.8272 137.52C81.4805 137.52 79.6005 136.787 78.1872 135.32C76.7739 133.827 76.0672 131.813 76.0672 129.28V117H79.5472V129.08C79.5472 130.707 79.9872 131.973 80.8672 132.88C81.7472 133.76 82.9605 134.2 84.5072 134.2C86.2405 134.2 87.6405 133.667 88.7072 132.6C89.7739 131.507 90.3072 129.84 90.3072 127.6V117ZM102.565 120.36C103.712 117.88 105.792 116.64 108.805 116.64V120.28C107.099 120.2 105.632 120.653 104.405 121.64C103.179 122.627 102.565 124.213 102.565 126.4V137H99.0853V117H102.565V120.36ZM125.21 122.4C125.21 123.173 125.597 123.8 126.37 124.28C127.144 124.733 128.077 125.107 129.17 125.4C130.264 125.667 131.357 125.987 132.45 126.36C133.544 126.707 134.477 127.32 135.25 128.2C136.024 129.053 136.41 130.16 136.41 131.52C136.41 133.333 135.704 134.787 134.29 135.88C132.904 136.973 131.117 137.52 128.93 137.52C126.984 137.52 125.317 137.093 123.93 136.24C122.544 135.387 121.557 134.253 120.97 132.84L123.97 131.12C124.29 132.08 124.89 132.84 125.77 133.4C126.65 133.96 127.704 134.24 128.93 134.24C130.077 134.24 131.024 134.027 131.77 133.6C132.517 133.147 132.89 132.453 132.89 131.52C132.89 130.747 132.504 130.133 131.73 129.68C130.957 129.2 130.024 128.827 128.93 128.56C127.837 128.267 126.744 127.933 125.65 127.56C124.557 127.187 123.624 126.573 122.85 125.72C122.077 124.867 121.69 123.773 121.69 122.44C121.69 120.707 122.357 119.28 123.69 118.16C125.05 117.04 126.744 116.48 128.77 116.48C130.397 116.48 131.837 116.853 133.09 117.6C134.37 118.32 135.33 119.333 135.97 120.64L133.05 122.28C132.33 120.573 130.904 119.72 128.77 119.72C127.784 119.72 126.944 119.96 126.25 120.44C125.557 120.893 125.21 121.547 125.21 122.4ZM156.864 134.48C154.81 136.507 152.317 137.52 149.384 137.52C146.45 137.52 143.957 136.507 141.904 134.48C139.877 132.453 138.864 129.96 138.864 127C138.864 124.04 139.877 121.547 141.904 119.52C143.957 117.493 146.45 116.48 149.384 116.48C152.317 116.48 154.81 117.493 156.864 119.52C158.917 121.547 159.944 124.04 159.944 127C159.944 129.96 158.917 132.453 156.864 134.48ZM149.384 134.12C151.384 134.12 153.064 133.44 154.424 132.08C155.784 130.72 156.464 129.027 156.464 127C156.464 124.973 155.784 123.28 154.424 121.92C153.064 120.56 151.384 119.88 149.384 119.88C147.41 119.88 145.744 120.56 144.384 121.92C143.024 123.28 142.344 124.973 142.344 127C142.344 129.027 143.024 130.72 144.384 132.08C145.744 133.44 147.41 134.12 149.384 134.12ZM173.446 137.52C170.433 137.52 167.926 136.52 165.926 134.52C163.926 132.493 162.926 129.987 162.926 127C162.926 124.013 163.926 121.52 165.926 119.52C167.926 117.493 170.433 116.48 173.446 116.48C175.42 116.48 177.193 116.96 178.766 117.92C180.34 118.853 181.513 120.12 182.286 121.72L179.366 123.4C178.86 122.333 178.073 121.48 177.006 120.84C175.966 120.2 174.78 119.88 173.446 119.88C171.446 119.88 169.766 120.56 168.406 121.92C167.073 123.28 166.406 124.973 166.406 127C166.406 129 167.073 130.68 168.406 132.04C169.766 133.4 171.446 134.08 173.446 134.08C174.78 134.08 175.98 133.773 177.046 133.16C178.113 132.52 178.926 131.667 179.486 130.6L182.446 132.32C181.593 133.893 180.366 135.16 178.766 136.12C177.166 137.053 175.393 137.52 173.446 137.52ZM187.642 113.36C186.976 113.36 186.416 113.133 185.962 112.68C185.509 112.227 185.282 111.68 185.282 111.04C185.282 110.4 185.509 109.853 185.962 109.4C186.416 108.92 186.976 108.68 187.642 108.68C188.282 108.68 188.829 108.92 189.282 109.4C189.736 109.853 189.962 110.4 189.962 111.04C189.962 111.68 189.736 112.227 189.282 112.68C188.829 113.133 188.282 113.36 187.642 113.36ZM185.882 137V117H189.362V137H185.882ZM211.231 117H214.711V137H211.231V133.56C209.498 136.2 206.978 137.52 203.671 137.52C200.871 137.52 198.485 136.507 196.511 134.48C194.538 132.427 193.551 129.933 193.551 127C193.551 124.067 194.538 121.587 196.511 119.56C198.485 117.507 200.871 116.48 203.671 116.48C206.978 116.48 209.498 117.8 211.231 120.44V117ZM204.111 134.16C206.138 134.16 207.831 133.48 209.191 132.12C210.551 130.733 211.231 129.027 211.231 127C211.231 124.973 210.551 123.28 209.191 121.92C207.831 120.533 206.138 119.84 204.111 119.84C202.111 119.84 200.431 120.533 199.071 121.92C197.711 123.28 197.031 124.973 197.031 127C197.031 129.027 197.711 130.733 199.071 132.12C200.431 133.48 202.111 134.16 204.111 134.16ZM219.984 137V107.8H223.464V137H219.984ZM231.734 122.4C231.734 123.173 232.12 123.8 232.894 124.28C233.667 124.733 234.6 125.107 235.694 125.4C236.787 125.667 237.88 125.987 238.974 126.36C240.067 126.707 241 127.32 241.774 128.2C242.547 129.053 242.934 130.16 242.934 131.52C242.934 133.333 242.227 134.787 240.814 135.88C239.427 136.973 237.64 137.52 235.454 137.52C233.507 137.52 231.84 137.093 230.454 136.24C229.067 135.387 228.08 134.253 227.494 132.84L230.494 131.12C230.814 132.08 231.414 132.84 232.294 133.4C233.174 133.96 234.227 134.24 235.454 134.24C236.6 134.24 237.547 134.027 238.294 133.6C239.04 133.147 239.414 132.453 239.414 131.52C239.414 130.747 239.027 130.133 238.254 129.68C237.48 129.2 236.547 128.827 235.454 128.56C234.36 128.267 233.267 127.933 232.174 127.56C231.08 127.187 230.147 126.573 229.374 125.72C228.6 124.867 228.214 123.773 228.214 122.44C228.214 120.707 228.88 119.28 230.214 118.16C231.574 117.04 233.267 116.48 235.294 116.48C236.92 116.48 238.36 116.853 239.614 117.6C240.894 118.32 241.854 119.333 242.494 120.64L239.574 122.28C238.854 120.573 237.427 119.72 235.294 119.72C234.307 119.72 233.467 119.96 232.774 120.44C232.08 120.893 231.734 121.547 231.734 122.4ZM273.934 134.48C271.881 136.507 269.387 137.52 266.454 137.52C263.521 137.52 261.027 136.507 258.974 134.48C256.947 132.453 255.934 129.96 255.934 127C255.934 124.04 256.947 121.547 258.974 119.52C261.027 117.493 263.521 116.48 266.454 116.48C269.387 116.48 271.881 117.493 273.934 119.52C275.987 121.547 277.014 124.04 277.014 127C277.014 129.96 275.987 132.453 273.934 134.48ZM266.454 134.12C268.454 134.12 270.134 133.44 271.494 132.08C272.854 130.72 273.534 129.027 273.534 127C273.534 124.973 272.854 123.28 271.494 121.92C270.134 120.56 268.454 119.88 266.454 119.88C264.481 119.88 262.814 120.56 261.454 121.92C260.094 123.28 259.414 124.973 259.414 127C259.414 129.027 260.094 130.72 261.454 132.08C262.814 133.44 264.481 134.12 266.454 134.12ZM291.077 116.48C293.423 116.48 295.303 117.227 296.717 118.72C298.13 120.187 298.837 122.187 298.837 124.72V137H295.357V124.92C295.357 123.293 294.917 122.04 294.037 121.16C293.157 120.253 291.943 119.8 290.397 119.8C288.663 119.8 287.263 120.347 286.197 121.44C285.13 122.507 284.597 124.16 284.597 126.4V137H281.117V117H284.597V119.88C286.01 117.613 288.17 116.48 291.077 116.48ZM330.255 117H333.735V137H330.255V133.56C328.521 136.2 326.001 137.52 322.695 137.52C319.895 137.52 317.508 136.507 315.535 134.48C313.561 132.427 312.575 129.933 312.575 127C312.575 124.067 313.561 121.587 315.535 119.56C317.508 117.507 319.895 116.48 322.695 116.48C326.001 116.48 328.521 117.8 330.255 120.44V117ZM323.135 134.16C325.161 134.16 326.855 133.48 328.215 132.12C329.575 130.733 330.255 129.027 330.255 127C330.255 124.973 329.575 123.28 328.215 121.92C326.855 120.533 325.161 119.84 323.135 119.84C321.135 119.84 319.455 120.533 318.095 121.92C316.735 123.28 316.055 124.973 316.055 127C316.055 129.027 316.735 130.733 318.095 132.12C319.455 133.48 321.135 134.16 323.135 134.16ZM352.807 117H356.287V137H352.807V134.12C351.394 136.387 349.234 137.52 346.327 137.52C343.981 137.52 342.101 136.787 340.687 135.32C339.274 133.827 338.567 131.813 338.567 129.28V117H342.047V129.08C342.047 130.707 342.487 131.973 343.367 132.88C344.247 133.76 345.461 134.2 347.007 134.2C348.741 134.2 350.141 133.667 351.207 132.6C352.274 131.507 352.807 129.84 352.807 127.6V117ZM372.465 120.36H367.145V131.2C367.145 132.187 367.332 132.893 367.705 133.32C368.105 133.72 368.705 133.933 369.505 133.96C370.305 133.96 371.292 133.933 372.465 133.88V137C369.425 137.4 367.199 137.16 365.785 136.28C364.372 135.373 363.665 133.68 363.665 131.2V120.36H359.705V117H363.665V112.44L367.145 111.4V117H372.465V120.36ZM392.45 134.48C390.396 136.507 387.903 137.52 384.97 137.52C382.036 137.52 379.543 136.507 377.49 134.48C375.463 132.453 374.45 129.96 374.45 127C374.45 124.04 375.463 121.547 377.49 119.52C379.543 117.493 382.036 116.48 384.97 116.48C387.903 116.48 390.396 117.493 392.45 119.52C394.503 121.547 395.53 124.04 395.53 127C395.53 129.96 394.503 132.453 392.45 134.48ZM384.97 134.12C386.97 134.12 388.65 133.44 390.01 132.08C391.37 130.72 392.05 129.027 392.05 127C392.05 124.973 391.37 123.28 390.01 121.92C388.65 120.56 386.97 119.88 384.97 119.88C382.996 119.88 381.33 120.56 379.97 121.92C378.61 123.28 377.93 124.973 377.93 127C377.93 129.027 378.61 130.72 379.97 132.08C381.33 133.44 382.996 134.12 384.97 134.12ZM410.672 116.48C413.472 116.48 415.859 117.507 417.832 119.56C419.806 121.587 420.792 124.067 420.792 127C420.792 129.933 419.806 132.427 417.832 134.48C415.859 136.507 413.472 137.52 410.672 137.52C407.366 137.52 404.846 136.2 403.112 133.56V145H399.632V117H403.112V120.44C404.846 117.8 407.366 116.48 410.672 116.48ZM410.232 134.16C412.232 134.16 413.912 133.48 415.272 132.12C416.632 130.733 417.312 129.027 417.312 127C417.312 124.973 416.632 123.28 415.272 121.92C413.912 120.533 412.232 119.84 410.232 119.84C408.206 119.84 406.512 120.533 405.152 121.92C403.792 123.28 403.112 124.973 403.112 127C403.112 129.027 403.792 130.733 405.152 132.12C406.512 133.48 408.206 134.16 410.232 134.16ZM426.705 113.36C426.038 113.36 425.478 113.133 425.025 112.68C424.571 112.227 424.345 111.68 424.345 111.04C424.345 110.4 424.571 109.853 425.025 109.4C425.478 108.92 426.038 108.68 426.705 108.68C427.345 108.68 427.891 108.92 428.345 109.4C428.798 109.853 429.025 110.4 429.025 111.04C429.025 111.68 428.798 112.227 428.345 112.68C427.891 113.133 427.345 113.36 426.705 113.36ZM424.945 137V117H428.425V137H424.945ZM433.734 137V107.8H437.214V137H433.734ZM459.403 134.48C457.349 136.507 454.856 137.52 451.923 137.52C448.989 137.52 446.496 136.507 444.443 134.48C442.416 132.453 441.403 129.96 441.403 127C441.403 124.04 442.416 121.547 444.443 119.52C446.496 117.493 448.989 116.48 451.923 116.48C454.856 116.48 457.349 117.493 459.403 119.52C461.456 121.547 462.483 124.04 462.483 127C462.483 129.96 461.456 132.453 459.403 134.48ZM451.923 134.12C453.923 134.12 455.603 133.44 456.963 132.08C458.323 130.72 459.003 129.027 459.003 127C459.003 124.973 458.323 123.28 456.963 121.92C455.603 120.56 453.923 119.88 451.923 119.88C449.949 119.88 448.283 120.56 446.923 121.92C445.563 123.28 444.883 124.973 444.883 127C444.883 129.027 445.563 130.72 446.923 132.08C448.283 133.44 449.949 134.12 451.923 134.12ZM477.036 120.36H471.716V131.2C471.716 132.187 471.902 132.893 472.276 133.32C472.676 133.72 473.276 133.933 474.076 133.96C474.876 133.96 475.862 133.933 477.036 133.88V137C473.996 137.4 471.769 137.16 470.356 136.28C468.942 135.373 468.236 133.68 468.236 131.2V120.36H464.276V117H468.236V112.44L471.716 111.4V117H477.036V120.36Z" fill="url(#paint0_linear_2384_868)"/>
<defs>
<linearGradient id="paint0_linear_2384_868" x1="30" y1="151" x2="119.831" y2="-54.7864" gradientUnits="userSpaceOnUse">
<stop stop-color="#9B51E0"/>
<stop offset="1" stop-color="#3DA5E0"/>
</linearGradient>
</defs>
</svg>
