<svg width="20" height="20" viewBox="0 0 20 20" fill="none" xmlns="http://www.w3.org/2000/svg">
<path d="M7.70837 1.91828L1.97921 7.64717V15.6682C1.97921 17.5544 3.51823 19.1055 5.41671 19.1055H7.13546V16.8139C7.13546 16.8139 7.70837 14.5223 10 14.5223C12.2917 14.5223 12.8646 16.8139 12.8646 16.8139V19.1055L14.5834 19.1056C16.4819 19.1056 18.0209 17.5544 18.0209 15.6682V7.64717L12.2917 1.91809C10.9327 0.47146 9.06735 0.471642 7.70837 1.91828Z" fill="black" fill-opacity="0.95"/>
<path d="M1.97921 7.64717L7.70837 1.91828C9.06735 0.471642 10.9327 0.47146 12.2917 1.91809L18.0209 7.64717M1.97921 7.64717L0.833374 8.79289M1.97921 7.64717V15.6682C1.97921 17.5544 3.51823 19.1055 5.41671 19.1055H7.13546V16.8139C7.13546 16.8139 7.70837 14.5223 10 14.5223C12.2917 14.5223 12.8646 16.8139 12.8646 16.8139V19.1055L14.5834 19.1056C16.4819 19.1056 18.0209 17.5544 18.0209 15.6682V7.64717M19.1667 8.79289L18.0209 7.64717" stroke="black" stroke-opacity="0.85098" stroke-width="1.5" stroke-miterlimit="16" stroke-linecap="round"/>
</svg>
