<svg width="20" height="20" viewBox="0 0 20 20" fill="none" xmlns="http://www.w3.org/2000/svg">
<path d="M6.38123 2.22223H3.0479V17.7778H6.38123" stroke="black" stroke-opacity="0.85098" stroke-width="1.5" stroke-linejoin="round"/>
<path fill-rule="evenodd" clip-rule="evenodd" d="M17.4026 1.07358C17.6156 1.09488 17.7778 1.27411 17.7778 1.48818V18.5118C17.7778 18.7259 17.6156 18.9051 17.4026 18.9264L7.1248 19.9542C6.87951 19.9787 6.66667 19.7861 6.66667 19.5396V0.460409C6.66667 0.2139 6.87951 0.0212812 7.1248 0.0458096L17.4026 1.07358ZM9.16667 10.8333C9.62691 10.8333 10 10.4602 10 10C10 9.53976 9.62691 9.16666 9.16667 9.16666C8.70643 9.16666 8.33334 9.53976 8.33334 10C8.33334 10.4602 8.70643 10.8333 9.16667 10.8333Z" fill="black" fill-opacity="0.85098"/>
</svg>
