<svg width="223" height="453" viewBox="0 0 223 453" fill="none" xmlns="http://www.w3.org/2000/svg">
<path d="M111 0C50.801 33 12 90.605 12 174C12 174 28.5001 129 111 129C193.5 129 210 174 210 174C210 90.605 171.199 33 111 0Z" fill="#C837AC"/>
<path d="M111 0C50.801 33 12 90.605 12 174C12 174 28.5001 129 111 129C193.5 129 210 174 210 174C210 90.605 171.199 33 111 0Z" fill="url(#paint0_radial_2394_904)"/>
<path d="M111 0C50.801 33 12 90.605 12 174C12 174 28.5001 129 111 129C193.5 129 210 174 210 174C210 90.605 171.199 33 111 0Z" fill="url(#paint1_radial_2394_904)"/>
<path d="M51.5 342.445C24.2657 326.89 -6.48377 257.5 2.00003 218C10.4838 178.5 37.5001 141.5 111 141.5C184.5 141.5 211.79 182 220 218C226.5 246.5 217.833 262.346 213.623 276.5C213.623 245 205.5 235.5 195 241.5C174.459 253.238 204.025 274.5 190 301C175.975 327.5 160.5 324 138 361C125.828 381.016 126.5 424.5 138 453C51.5 388.5 83.5 276.5 60 276.5C36.5 276.5 35.5 320 51.5 342.445Z" fill="#C837AC"/>
<path d="M51.5 342.445C24.2657 326.89 -6.48377 257.5 2.00003 218C10.4838 178.5 37.5001 141.5 111 141.5C184.5 141.5 211.79 182 220 218C226.5 246.5 217.833 262.346 213.623 276.5C213.623 245 205.5 235.5 195 241.5C174.459 253.238 204.025 274.5 190 301C175.975 327.5 160.5 324 138 361C125.828 381.016 126.5 424.5 138 453C51.5 388.5 83.5 276.5 60 276.5C36.5 276.5 35.5 320 51.5 342.445Z" fill="url(#paint2_radial_2394_904)"/>
<path d="M51.5 342.445C24.2657 326.89 -6.48377 257.5 2.00003 218C10.4838 178.5 37.5001 141.5 111 141.5C184.5 141.5 211.79 182 220 218C226.5 246.5 217.833 262.346 213.623 276.5C213.623 245 205.5 235.5 195 241.5C174.459 253.238 204.025 274.5 190 301C175.975 327.5 160.5 324 138 361C125.828 381.016 126.5 424.5 138 453C51.5 388.5 83.5 276.5 60 276.5C36.5 276.5 35.5 320 51.5 342.445Z" fill="url(#paint3_radial_2394_904)"/>
<defs>
<radialGradient id="paint0_radial_2394_904" cx="0" cy="0" r="1" gradientUnits="userSpaceOnUse" gradientTransform="translate(56.5573 23.5698) rotate(65.126) scale(394.133 430.771)">
<stop stop-color="#4A63C8"/>
<stop offset="0.258888" stop-color="#A73AA9"/>
<stop offset="1" stop-color="#A73AA9" stop-opacity="0"/>
</radialGradient>
<radialGradient id="paint1_radial_2394_904" cx="0" cy="0" r="1" gradientUnits="userSpaceOnUse" gradientTransform="translate(63.1447 370.793) rotate(-61.6328) scale(234.543 186.469)">
<stop offset="0.164832" stop-color="#FDCE53"/>
<stop offset="0.640444" stop-color="#F7504E"/>
<stop offset="1" stop-color="#F7504E" stop-opacity="0"/>
</radialGradient>
<radialGradient id="paint2_radial_2394_904" cx="0" cy="0" r="1" gradientUnits="userSpaceOnUse" gradientTransform="translate(56.5573 23.5698) rotate(65.126) scale(394.133 430.771)">
<stop stop-color="#4A63C8"/>
<stop offset="0.258888" stop-color="#A73AA9"/>
<stop offset="1" stop-color="#A73AA9" stop-opacity="0"/>
</radialGradient>
<radialGradient id="paint3_radial_2394_904" cx="0" cy="0" r="1" gradientUnits="userSpaceOnUse" gradientTransform="translate(63.1447 370.793) rotate(-61.6328) scale(234.543 186.469)">
<stop offset="0.164832" stop-color="#FDCE53"/>
<stop offset="0.640444" stop-color="#F7504E"/>
<stop offset="1" stop-color="#F7504E" stop-opacity="0"/>
</radialGradient>
</defs>
</svg>
