<svg width="40" height="58" viewBox="0 0 40 58" fill="none" xmlns="http://www.w3.org/2000/svg">
<path fill-rule="evenodd" clip-rule="evenodd" d="M20.2893 0.762329C28.2457 3.01331 33.5307 15.1391 37.0627 26.2385C37.418 27.3551 39.3722 28.4614 39.6565 29.5461C38.5311 32.3094 36.8314 34.7777 34.7056 36.8029C30.9551 32.0828 25.8784 26.2385 20.2893 26.2385C14.7003 26.2385 9.62357 32.0828 5.87304 36.8029C3.74731 34.7777 2.04761 32.3094 0.922119 29.5461C1.20651 28.4614 3.16065 27.3551 3.51597 26.2385C7.04792 15.1391 12.333 3.01331 20.2893 0.762329Z" fill="black"/>
<path fill-rule="evenodd" clip-rule="evenodd" d="M34.7056 36.8029C36.8314 34.7777 38.5311 32.3094 39.6565 29.5461C39.3722 28.4614 37.418 27.3551 37.0627 26.2385C33.5307 15.1391 28.2457 3.01331 20.2893 0.762329C12.333 3.01331 7.04792 15.1391 3.51597 26.2385C3.16065 27.3551 1.20651 28.4614 0.922119 29.5461C2.04761 32.3094 3.74731 34.7777 5.87304 36.8029C9.62357 32.0828 14.7003 26.2385 20.2893 26.2385C25.8784 26.2385 30.9551 32.0828 34.7056 36.8029Z" fill="black"/>
<path d="M22.9997 35C22.9997 36.6568 21.6565 55 19.9997 58C18.3428 55 16.9997 36.6568 16.9997 35C16.9997 33.3431 18.3428 32 19.9997 32C21.6565 32 22.9997 33.3431 22.9997 35Z" fill="black"/>
</svg>
