<svg width="56" height="104" viewBox="0 0 56 104" fill="none" xmlns="http://www.w3.org/2000/svg">
<path d="M34 85.0001C39 92.4184 28.866 100 28 104C27.134 100 17 92.4184 22 85.0001C24 87 26 89 28 89C30 89 32 87 34 85.0001Z" fill="black"/>
<path fill-rule="evenodd" clip-rule="evenodd" d="M4.99999 42.8221C4.99999 20.8221 14.3391 7.9669 28 0C41.6609 7.9669 51 20.8221 51 42.8221C51 48.0053 50.4284 52.7854 49.3885 57.0662C49.3885 57.0662 56 62 56 65C56 72.3983 50.9737 81.9099 50.2176 83.2989C50.1527 83.4181 50.105 83.5379 50.0515 83.6627C49.4705 85.0162 47.624 85.3065 46.6647 84.1259L39.3784 75.158C36.023 78.0453 32.1392 79.634 28 79.669C23.8608 79.634 19.977 78.0453 16.6216 75.158L9.33523 84.1259C8.37595 85.3065 6.5295 85.0162 5.94848 83.6627C5.89494 83.5379 5.8473 83.4181 5.78241 83.2989C5.0263 81.9099 -3.05176e-05 72.3983 -3.05176e-05 65C-3.05176e-05 62 6.61151 57.0662 6.61151 57.0662C5.57157 52.7854 4.99999 48.0053 4.99999 42.8221ZM21.154 38.6289C25.6574 40.0216 30.6309 36.8734 32.2627 31.5971C33.8945 26.3209 31.5666 20.9146 27.0633 19.5218C22.5599 18.129 17.5864 21.2773 15.9546 26.5535C14.3228 31.8298 16.6507 37.2361 21.154 38.6289Z" fill="black"/>
</svg>
