<svg width="223" height="486" viewBox="0 0 223 486" fill="none" xmlns="http://www.w3.org/2000/svg">
<path d="M51.5 375.445C24.2657 359.89 -6.48377 290.5 2.00003 251C10.4838 211.5 37.5001 174.5 111 174.5C184.5 174.5 211.79 215 220 251C226.5 279.5 217.833 295.346 213.623 309.5C213.623 278 205.5 268.5 195 274.5C174.459 286.238 204.025 307.5 190 334C175.975 360.5 160.5 357 138 394C125.828 414.016 126.5 457.5 138 486C51.5 421.5 83.5 309.5 60 309.5C36.5 309.5 35.5 353 51.5 375.445Z" fill="#C837AC"/>
<path d="M51.5 375.445C24.2657 359.89 -6.48377 290.5 2.00003 251C10.4838 211.5 37.5001 174.5 111 174.5C184.5 174.5 211.79 215 220 251C226.5 279.5 217.833 295.346 213.623 309.5C213.623 278 205.5 268.5 195 274.5C174.459 286.238 204.025 307.5 190 334C175.975 360.5 160.5 357 138 394C125.828 414.016 126.5 457.5 138 486C51.5 421.5 83.5 309.5 60 309.5C36.5 309.5 35.5 353 51.5 375.445Z" fill="url(#paint0_radial_2396_977)"/>
<path d="M51.5 375.445C24.2657 359.89 -6.48377 290.5 2.00003 251C10.4838 211.5 37.5001 174.5 111 174.5C184.5 174.5 211.79 215 220 251C226.5 279.5 217.833 295.346 213.623 309.5C213.623 278 205.5 268.5 195 274.5C174.459 286.238 204.025 307.5 190 334C175.975 360.5 160.5 357 138 394C125.828 414.016 126.5 457.5 138 486C51.5 421.5 83.5 309.5 60 309.5C36.5 309.5 35.5 353 51.5 375.445Z" fill="url(#paint1_radial_2396_977)"/>
<path fill-rule="evenodd" clip-rule="evenodd" d="M12 204C12 120.605 50.801 33 111 0C171.199 33 210 120.605 210 204C210 204 193.5 159 111 159C28.5001 159 12 204 12 204ZM77.9129 116.233C90.015 121.767 105.58 113.67 112.678 98.1469C119.776 82.624 115.72 65.554 103.618 60.0201C91.5154 54.4861 75.9505 62.5838 68.8523 78.1066C61.7542 93.6295 65.8107 110.699 77.9129 116.233Z" fill="#C837AC"/>
<path fill-rule="evenodd" clip-rule="evenodd" d="M12 204C12 120.605 50.801 33 111 0C171.199 33 210 120.605 210 204C210 204 193.5 159 111 159C28.5001 159 12 204 12 204ZM77.9129 116.233C90.015 121.767 105.58 113.67 112.678 98.1469C119.776 82.624 115.72 65.554 103.618 60.0201C91.5154 54.4861 75.9505 62.5838 68.8523 78.1066C61.7542 93.6295 65.8107 110.699 77.9129 116.233Z" fill="url(#paint2_radial_2396_977)"/>
<path fill-rule="evenodd" clip-rule="evenodd" d="M12 204C12 120.605 50.801 33 111 0C171.199 33 210 120.605 210 204C210 204 193.5 159 111 159C28.5001 159 12 204 12 204ZM77.9129 116.233C90.015 121.767 105.58 113.67 112.678 98.1469C119.776 82.624 115.72 65.554 103.618 60.0201C91.5154 54.4861 75.9505 62.5838 68.8523 78.1066C61.7542 93.6295 65.8107 110.699 77.9129 116.233Z" fill="url(#paint3_radial_2396_977)"/>
<defs>
<radialGradient id="paint0_radial_2396_977" cx="0" cy="0" r="1" gradientUnits="userSpaceOnUse" gradientTransform="translate(56.5573 25.2868) rotate(66.6283) scale(417.908 435.859)">
<stop stop-color="#4A63C8"/>
<stop offset="0.258888" stop-color="#A73AA9"/>
<stop offset="1" stop-color="#A73AA9" stop-opacity="0"/>
</radialGradient>
<radialGradient id="paint1_radial_2396_977" cx="0" cy="0" r="1" gradientUnits="userSpaceOnUse" gradientTransform="translate(63.1447 397.805) rotate(-63.2841) scale(247.875 189.293)">
<stop offset="0.164832" stop-color="#FDCE53"/>
<stop offset="0.640444" stop-color="#F7504E"/>
<stop offset="1" stop-color="#F7504E" stop-opacity="0"/>
</radialGradient>
<radialGradient id="paint2_radial_2396_977" cx="0" cy="0" r="1" gradientUnits="userSpaceOnUse" gradientTransform="translate(56.5573 25.2868) rotate(66.6283) scale(417.908 435.859)">
<stop stop-color="#4A63C8"/>
<stop offset="0.258888" stop-color="#A73AA9"/>
<stop offset="1" stop-color="#A73AA9" stop-opacity="0"/>
</radialGradient>
<radialGradient id="paint3_radial_2396_977" cx="0" cy="0" r="1" gradientUnits="userSpaceOnUse" gradientTransform="translate(63.1447 397.805) rotate(-63.2841) scale(247.875 189.293)">
<stop offset="0.164832" stop-color="#FDCE53"/>
<stop offset="0.640444" stop-color="#F7504E"/>
<stop offset="1" stop-color="#F7504E" stop-opacity="0"/>
</radialGradient>
</defs>
</svg>
