<svg width="222" height="486" viewBox="0 0 222 486" fill="none" xmlns="http://www.w3.org/2000/svg">
<path d="M50.9354 375.445C23.701 359.89 -7.04844 290.5 1.43536 251C9.91917 211.5 36.9354 174.5 110.435 174.5C183.935 174.5 211.225 215 219.435 251C225.935 279.5 217.269 295.346 213.058 309.5C213.058 278 204.935 268.5 194.435 274.5C173.894 286.238 203.461 307.5 189.435 334C175.41 360.5 159.935 357 137.435 394C125.263 414.016 125.935 457.5 137.435 486C50.9354 421.5 82.9354 309.5 59.4354 309.5C35.9354 309.5 34.9354 353 50.9354 375.445Z" fill="black"/>
<path fill-rule="evenodd" clip-rule="evenodd" d="M11.4353 204C11.4354 120.605 50.2363 33 110.435 0C170.634 33 209.435 120.605 209.435 204C209.435 204 192.935 159 110.435 159C27.9354 159 11.4353 204 11.4353 204ZM77.3482 116.233C89.4504 121.767 105.015 113.67 112.113 98.1469C119.212 82.624 115.155 65.554 103.053 60.0201C90.9507 54.4861 75.3858 62.5838 68.2877 78.1066C61.1895 93.6295 65.2461 110.699 77.3482 116.233Z" fill="black"/>
</svg>
