<svg width="218" height="404" viewBox="0 0 218 404" fill="none" xmlns="http://www.w3.org/2000/svg">
<path d="M132.357 330.192C151.822 359.01 112.371 388.462 109 404C105.629 388.462 66.1786 359.01 85.6429 330.192C93.4287 337.961 101.214 345.73 109 345.73C116.786 345.73 124.572 337.961 132.357 330.192Z" fill="#C837AC"/>
<path d="M132.357 330.192C151.822 359.01 112.371 388.462 109 404C105.629 388.462 66.1786 359.01 85.6429 330.192C93.4287 337.961 101.214 345.73 109 345.73C116.786 345.73 124.572 337.961 132.357 330.192Z" fill="url(#paint0_radial_2386_889)"/>
<path d="M132.357 330.192C151.822 359.01 112.371 388.462 109 404C105.629 388.462 66.1786 359.01 85.6429 330.192C93.4287 337.961 101.214 345.73 109 345.73C116.786 345.73 124.572 337.961 132.357 330.192Z" fill="url(#paint1_radial_2386_889)"/>
<path fill-rule="evenodd" clip-rule="evenodd" d="M19.4644 166.347C19.4644 80.8858 55.8202 30.9483 109 0C162.18 30.9483 198.536 80.8858 198.536 166.347C198.536 186.482 196.311 205.051 192.262 221.68C192.262 221.68 218 240.846 218 252.5C218 282.435 196.772 321.276 195.212 324.09C195.146 324.209 195.101 324.32 195.056 324.448C193.073 330.172 185.52 331.538 181.659 326.796L153.295 291.96C140.233 303.176 125.113 309.347 109 309.483C92.8867 309.347 77.7676 303.176 64.7056 291.96L36.3408 326.796C32.48 331.538 24.9273 330.172 22.944 324.448C22.8995 324.32 22.8545 324.209 22.7886 324.09C21.2283 321.276 0 282.435 0 252.5C0 240.846 25.7378 221.68 25.7378 221.68C21.6894 205.051 19.4644 186.482 19.4644 166.347ZM82.3497 150.058C99.8807 155.468 119.242 143.239 125.594 122.743C131.947 102.246 122.885 81.2449 105.354 75.8346C87.8227 70.4243 68.4615 82.6539 62.1091 103.15C55.7568 123.646 64.8188 144.648 82.3497 150.058Z" fill="#C837AC"/>
<path fill-rule="evenodd" clip-rule="evenodd" d="M19.4644 166.347C19.4644 80.8858 55.8202 30.9483 109 0C162.18 30.9483 198.536 80.8858 198.536 166.347C198.536 186.482 196.311 205.051 192.262 221.68C192.262 221.68 218 240.846 218 252.5C218 282.435 196.772 321.276 195.212 324.09C195.146 324.209 195.101 324.32 195.056 324.448C193.073 330.172 185.52 331.538 181.659 326.796L153.295 291.96C140.233 303.176 125.113 309.347 109 309.483C92.8867 309.347 77.7676 303.176 64.7056 291.96L36.3408 326.796C32.48 331.538 24.9273 330.172 22.944 324.448C22.8995 324.32 22.8545 324.209 22.7886 324.09C21.2283 321.276 0 282.435 0 252.5C0 240.846 25.7378 221.68 25.7378 221.68C21.6894 205.051 19.4644 186.482 19.4644 166.347ZM82.3497 150.058C99.8807 155.468 119.242 143.239 125.594 122.743C131.947 102.246 122.885 81.2449 105.354 75.8346C87.8227 70.4243 68.4615 82.6539 62.1091 103.15C55.7568 123.646 64.8188 144.648 82.3497 150.058Z" fill="url(#paint2_radial_2386_889)"/>
<path fill-rule="evenodd" clip-rule="evenodd" d="M19.4644 166.347C19.4644 80.8858 55.8202 30.9483 109 0C162.18 30.9483 198.536 80.8858 198.536 166.347C198.536 186.482 196.311 205.051 192.262 221.68C192.262 221.68 218 240.846 218 252.5C218 282.435 196.772 321.276 195.212 324.09C195.146 324.209 195.101 324.32 195.056 324.448C193.073 330.172 185.52 331.538 181.659 326.796L153.295 291.96C140.233 303.176 125.113 309.347 109 309.483C92.8867 309.347 77.7676 303.176 64.7056 291.96L36.3408 326.796C32.48 331.538 24.9273 330.172 22.944 324.448C22.8995 324.32 22.8545 324.209 22.7886 324.09C21.2283 321.276 0 282.435 0 252.5C0 240.846 25.7378 221.68 25.7378 221.68C21.6894 205.051 19.4644 186.482 19.4644 166.347ZM82.3497 150.058C99.8807 155.468 119.242 143.239 125.594 122.743C131.947 102.246 122.885 81.2449 105.354 75.8346C87.8227 70.4243 68.4615 82.6539 62.1091 103.15C55.7568 123.646 64.8188 144.648 82.3497 150.058Z" fill="url(#paint3_radial_2386_889)"/>
<defs>
<radialGradient id="paint0_radial_2386_889" cx="0" cy="0" r="1" gradientUnits="userSpaceOnUse" gradientTransform="translate(55.0396 21.0203) rotate(62.9321) scale(358.119 415.613)">
<stop stop-color="#4A63C8"/>
<stop offset="0.258888" stop-color="#A73AA9"/>
<stop offset="1" stop-color="#A73AA9" stop-opacity="0"/>
</radialGradient>
<radialGradient id="paint1_radial_2386_889" cx="0" cy="0" r="1" gradientUnits="userSpaceOnUse" gradientTransform="translate(61.5149 330.685) rotate(-59.2413) scale(214.186 179.006)">
<stop offset="0.164832" stop-color="#FDCE53"/>
<stop offset="0.640444" stop-color="#F7504E"/>
<stop offset="1" stop-color="#F7504E" stop-opacity="0"/>
</radialGradient>
<radialGradient id="paint2_radial_2386_889" cx="0" cy="0" r="1" gradientUnits="userSpaceOnUse" gradientTransform="translate(55.0396 21.0203) rotate(62.9321) scale(358.119 415.613)">
<stop stop-color="#4A63C8"/>
<stop offset="0.258888" stop-color="#A73AA9"/>
<stop offset="1" stop-color="#A73AA9" stop-opacity="0"/>
</radialGradient>
<radialGradient id="paint3_radial_2386_889" cx="0" cy="0" r="1" gradientUnits="userSpaceOnUse" gradientTransform="translate(61.5149 330.685) rotate(-59.2413) scale(214.186 179.006)">
<stop offset="0.164832" stop-color="#FDCE53"/>
<stop offset="0.640444" stop-color="#F7504E"/>
<stop offset="1" stop-color="#F7504E" stop-opacity="0"/>
</radialGradient>
</defs>
</svg>
