<svg width="222" height="483" viewBox="0 0 222 483" fill="none" xmlns="http://www.w3.org/2000/svg">
<path d="M50.9354 372.445C23.701 356.89 -7.04844 287.5 1.43536 248C9.91917 208.5 36.9354 171.5 110.435 171.5C183.935 171.5 211.225 212 219.435 248C225.935 276.5 217.269 292.346 213.058 306.5C213.058 275 204.935 265.5 194.435 271.5C173.894 283.238 203.461 304.5 189.435 331C175.41 357.5 159.935 354 137.435 391C125.263 411.016 125.935 454.5 137.435 483C50.9354 418.5 82.9354 306.5 59.4354 306.5C35.9354 306.5 34.9354 350 50.9354 372.445Z" fill="black"/>
<path fill-rule="evenodd" clip-rule="evenodd" d="M11.4353 204C11.4354 120.605 50.2363 33 110.435 0C170.634 33 209.435 120.605 209.435 204C209.435 204 192.935 159 110.435 159C27.9354 159 11.4353 204 11.4353 204ZM77.3482 116.233C89.4504 121.767 105.015 113.67 112.113 98.1469C119.212 82.624 115.155 65.554 103.053 60.0201C90.9507 54.4861 75.3858 62.5838 68.2877 78.1066C61.1895 93.6295 65.2461 110.699 77.3482 116.233Z" fill="black"/>
</svg>
