<svg width="284" height="265" viewBox="0 0 284 265" fill="none" xmlns="http://www.w3.org/2000/svg">
<path d="M0 211.211C8.25207 231.487 20.7142 249.599 36.3 264.459C58.7879 236.136 87.7784 202.295 120.008 190.902C120.008 203.06 129.856 237.662 142.004 259.675C154.152 237.662 164 203.063 164 190.905C196.227 202.301 225.214 236.138 247.7 264.459C263.286 249.599 275.748 231.487 284 211.211C282.945 207.184 278.758 203.117 274.54 199.021C270.419 195.019 266.269 190.989 264.982 186.94C239.086 105.494 200.336 16.5173 142 0C83.6642 16.5173 44.9142 105.494 19.0181 186.94C17.7307 190.989 13.5808 195.019 9.46025 199.021C5.24217 203.117 1.05476 207.184 0 211.211Z" fill="#C837AC"/>
<path d="M0 211.211C8.25207 231.487 20.7142 249.599 36.3 264.459C58.7879 236.136 87.7784 202.295 120.008 190.902C120.008 203.06 129.856 237.662 142.004 259.675C154.152 237.662 164 203.063 164 190.905C196.227 202.301 225.214 236.138 247.7 264.459C263.286 249.599 275.748 231.487 284 211.211C282.945 207.184 278.758 203.117 274.54 199.021C270.419 195.019 266.269 190.989 264.982 186.94C239.086 105.494 200.336 16.5173 142 0C83.6642 16.5173 44.9142 105.494 19.0181 186.94C17.7307 190.989 13.5808 195.019 9.46025 199.021C5.24217 203.117 1.05476 207.184 0 211.211Z" fill="url(#paint0_radial_2400_1299)"/>
<path d="M0 211.211C8.25207 231.487 20.7142 249.599 36.3 264.459C58.7879 236.136 87.7784 202.295 120.008 190.902C120.008 203.06 129.856 237.662 142.004 259.675C154.152 237.662 164 203.063 164 190.905C196.227 202.301 225.214 236.138 247.7 264.459C263.286 249.599 275.748 231.487 284 211.211C282.945 207.184 278.758 203.117 274.54 199.021C270.419 195.019 266.269 190.989 264.982 186.94C239.086 105.494 200.336 16.5173 142 0C83.6642 16.5173 44.9142 105.494 19.0181 186.94C17.7307 190.989 13.5808 195.019 9.46025 199.021C5.24217 203.117 1.05476 207.184 0 211.211Z" fill="url(#paint1_radial_2400_1299)"/>
<defs>
<radialGradient id="paint0_radial_2400_1299" cx="0" cy="0" r="1" gradientUnits="userSpaceOnUse" gradientTransform="translate(71.703 13.7599) rotate(44.5171) scale(297.735 426.311)">
<stop stop-color="#4A63C8"/>
<stop offset="0.258888" stop-color="#A73AA9"/>
<stop offset="1" stop-color="#A73AA9" stop-opacity="0"/>
</radialGradient>
<radialGradient id="paint1_radial_2400_1299" cx="0" cy="0" r="1" gradientUnits="userSpaceOnUse" gradientTransform="translate(142 251.5) rotate(-30.7405) scale(264.11 247.571)">
<stop offset="0.164832" stop-color="#FDCE53"/>
<stop offset="0.640444" stop-color="#F7504E"/>
<stop offset="1" stop-color="#F7504E" stop-opacity="0"/>
</radialGradient>
</defs>
</svg>
