<svg width="223" height="483" viewBox="0 0 223 483" fill="none" xmlns="http://www.w3.org/2000/svg">
<path d="M51.5 372.445C24.2657 356.89 -6.48377 287.5 2.00003 248C10.4838 208.5 37.5001 171.5 111 171.5C184.5 171.5 211.79 212 220 248C226.5 276.5 217.833 292.346 213.623 306.5C213.623 275 205.5 265.5 195 271.5C174.459 283.238 204.025 304.5 190 331C175.975 357.5 160.5 354 138 391C125.828 411.016 126.5 454.5 138 483C51.5 418.5 83.5 306.5 60 306.5C36.5 306.5 35.5 350 51.5 372.445Z" fill="#C837AC"/>
<path d="M51.5 372.445C24.2657 356.89 -6.48377 287.5 2.00003 248C10.4838 208.5 37.5001 171.5 111 171.5C184.5 171.5 211.79 212 220 248C226.5 276.5 217.833 292.346 213.623 306.5C213.623 275 205.5 265.5 195 271.5C174.459 283.238 204.025 304.5 190 331C175.975 357.5 160.5 354 138 391C125.828 411.016 126.5 454.5 138 483C51.5 418.5 83.5 306.5 60 306.5C36.5 306.5 35.5 350 51.5 372.445Z" fill="url(#paint0_radial_2396_977)"/>
<path d="M51.5 372.445C24.2657 356.89 -6.48377 287.5 2.00003 248C10.4838 208.5 37.5001 171.5 111 171.5C184.5 171.5 211.79 212 220 248C226.5 276.5 217.833 292.346 213.623 306.5C213.623 275 205.5 265.5 195 271.5C174.459 283.238 204.025 304.5 190 331C175.975 357.5 160.5 354 138 391C125.828 411.016 126.5 454.5 138 483C51.5 418.5 83.5 306.5 60 306.5C36.5 306.5 35.5 350 51.5 372.445Z" fill="url(#paint1_radial_2396_977)"/>
<path fill-rule="evenodd" clip-rule="evenodd" d="M12 204C12 120.605 50.801 33 111 0C171.199 33 210 120.605 210 204C210 204 193.5 159 111 159C28.5001 159 12 204 12 204ZM77.9129 116.233C90.015 121.767 105.58 113.67 112.678 98.1469C119.776 82.624 115.72 65.554 103.618 60.0201C91.5154 54.4861 75.9505 62.5838 68.8523 78.1066C61.7542 93.6295 65.8107 110.699 77.9129 116.233Z" fill="#C837AC"/>
<path fill-rule="evenodd" clip-rule="evenodd" d="M12 204C12 120.605 50.801 33 111 0C171.199 33 210 120.605 210 204C210 204 193.5 159 111 159C28.5001 159 12 204 12 204ZM77.9129 116.233C90.015 121.767 105.58 113.67 112.678 98.1469C119.776 82.624 115.72 65.554 103.618 60.0201C91.5154 54.4861 75.9505 62.5838 68.8523 78.1066C61.7542 93.6295 65.8107 110.699 77.9129 116.233Z" fill="url(#paint2_radial_2396_977)"/>
<path fill-rule="evenodd" clip-rule="evenodd" d="M12 204C12 120.605 50.801 33 111 0C171.199 33 210 120.605 210 204C210 204 193.5 159 111 159C28.5001 159 12 204 12 204ZM77.9129 116.233C90.015 121.767 105.58 113.67 112.678 98.1469C119.776 82.624 115.72 65.554 103.618 60.0201C91.5154 54.4861 75.9505 62.5838 68.8523 78.1066C61.7542 93.6295 65.8107 110.699 77.9129 116.233Z" fill="url(#paint3_radial_2396_977)"/>
<defs>
<radialGradient id="paint0_radial_2396_977" cx="0" cy="0" r="1" gradientUnits="userSpaceOnUse" gradientTransform="translate(56.5573 25.1307) rotate(66.4988) scale(415.736 435.432)">
<stop stop-color="#4A63C8"/>
<stop offset="0.258888" stop-color="#A73AA9"/>
<stop offset="1" stop-color="#A73AA9" stop-opacity="0"/>
</radialGradient>
<radialGradient id="paint1_radial_2396_977" cx="0" cy="0" r="1" gradientUnits="userSpaceOnUse" gradientTransform="translate(63.1447 395.349) rotate(-63.1414) scale(246.655 189.055)">
<stop offset="0.164832" stop-color="#FDCE53"/>
<stop offset="0.640444" stop-color="#F7504E"/>
<stop offset="1" stop-color="#F7504E" stop-opacity="0"/>
</radialGradient>
<radialGradient id="paint2_radial_2396_977" cx="0" cy="0" r="1" gradientUnits="userSpaceOnUse" gradientTransform="translate(56.5573 25.1307) rotate(66.4988) scale(415.736 435.432)">
<stop stop-color="#4A63C8"/>
<stop offset="0.258888" stop-color="#A73AA9"/>
<stop offset="1" stop-color="#A73AA9" stop-opacity="0"/>
</radialGradient>
<radialGradient id="paint3_radial_2396_977" cx="0" cy="0" r="1" gradientUnits="userSpaceOnUse" gradientTransform="translate(63.1447 395.349) rotate(-63.1414) scale(246.655 189.055)">
<stop offset="0.164832" stop-color="#FDCE53"/>
<stop offset="0.640444" stop-color="#F7504E"/>
<stop offset="1" stop-color="#F7504E" stop-opacity="0"/>
</radialGradient>
</defs>
</svg>
