<svg width="222" height="453" viewBox="0 0 222 453" fill="none" xmlns="http://www.w3.org/2000/svg">
<path d="M50.9354 342.445C23.701 326.89 -7.04844 257.5 1.43536 218C9.91917 178.5 36.9354 141.5 110.435 141.5C183.935 141.5 211.225 182 219.435 218C225.935 246.5 217.269 262.346 213.058 276.5C213.058 245 204.935 235.5 194.435 241.5C173.894 253.238 203.461 274.5 189.435 301C175.41 327.5 159.935 324 137.435 361C125.263 381.016 125.935 424.5 137.435 453C50.9354 388.5 82.9354 276.5 59.4354 276.5C35.9354 276.5 34.9354 320 50.9354 342.445Z" fill="#C837AC"/>
<path d="M50.9354 342.445C23.701 326.89 -7.04844 257.5 1.43536 218C9.91917 178.5 36.9354 141.5 110.435 141.5C183.935 141.5 211.225 182 219.435 218C225.935 246.5 217.269 262.346 213.058 276.5C213.058 245 204.935 235.5 194.435 241.5C173.894 253.238 203.461 274.5 189.435 301C175.41 327.5 159.935 324 137.435 361C125.263 381.016 125.935 424.5 137.435 453C50.9354 388.5 82.9354 276.5 59.4354 276.5C35.9354 276.5 34.9354 320 50.9354 342.445Z" fill="url(#paint0_radial_2394_914)"/>
<path d="M50.9354 342.445C23.701 326.89 -7.04844 257.5 1.43536 218C9.91917 178.5 36.9354 141.5 110.435 141.5C183.935 141.5 211.225 182 219.435 218C225.935 246.5 217.269 262.346 213.058 276.5C213.058 245 204.935 235.5 194.435 241.5C173.894 253.238 203.461 274.5 189.435 301C175.41 327.5 159.935 324 137.435 361C125.263 381.016 125.935 424.5 137.435 453C50.9354 388.5 82.9354 276.5 59.4354 276.5C35.9354 276.5 34.9354 320 50.9354 342.445Z" fill="url(#paint1_radial_2394_914)"/>
<path fill-rule="evenodd" clip-rule="evenodd" d="M11.4353 174C11.4354 90.605 50.2363 33 110.435 0C170.634 33 209.435 90.605 209.435 174C209.435 174 192.935 129 110.435 129C27.9354 129 11.4353 174 11.4353 174Z" fill="#C837AC"/>
<path fill-rule="evenodd" clip-rule="evenodd" d="M11.4353 174C11.4354 90.605 50.2363 33 110.435 0C170.634 33 209.435 90.605 209.435 174C209.435 174 192.935 129 110.435 129C27.9354 129 11.4353 174 11.4353 174Z" fill="url(#paint2_radial_2394_914)"/>
<path fill-rule="evenodd" clip-rule="evenodd" d="M11.4353 174C11.4354 90.605 50.2363 33 110.435 0C170.634 33 209.435 90.605 209.435 174C209.435 174 192.935 129 110.435 129C27.9354 129 11.4353 174 11.4353 174Z" fill="url(#paint3_radial_2394_914)"/>
<defs>
<radialGradient id="paint0_radial_2394_914" cx="0" cy="0" r="1" gradientUnits="userSpaceOnUse" gradientTransform="translate(55.9926 23.5698) rotate(65.126) scale(394.133 430.771)">
<stop stop-color="#4A63C8"/>
<stop offset="0.258888" stop-color="#A73AA9"/>
<stop offset="1" stop-color="#A73AA9" stop-opacity="0"/>
</radialGradient>
<radialGradient id="paint1_radial_2394_914" cx="0" cy="0" r="1" gradientUnits="userSpaceOnUse" gradientTransform="translate(62.58 370.793) rotate(-61.6328) scale(234.543 186.469)">
<stop offset="0.164832" stop-color="#FDCE53"/>
<stop offset="0.640444" stop-color="#F7504E"/>
<stop offset="1" stop-color="#F7504E" stop-opacity="0"/>
</radialGradient>
<radialGradient id="paint2_radial_2394_914" cx="0" cy="0" r="1" gradientUnits="userSpaceOnUse" gradientTransform="translate(55.9926 23.5698) rotate(65.126) scale(394.133 430.771)">
<stop stop-color="#4A63C8"/>
<stop offset="0.258888" stop-color="#A73AA9"/>
<stop offset="1" stop-color="#A73AA9" stop-opacity="0"/>
</radialGradient>
<radialGradient id="paint3_radial_2394_914" cx="0" cy="0" r="1" gradientUnits="userSpaceOnUse" gradientTransform="translate(62.58 370.793) rotate(-61.6328) scale(234.543 186.469)">
<stop offset="0.164832" stop-color="#FDCE53"/>
<stop offset="0.640444" stop-color="#F7504E"/>
<stop offset="1" stop-color="#F7504E" stop-opacity="0"/>
</radialGradient>
</defs>
</svg>
