<svg width="20" height="21" viewBox="0 0 20 21" fill="none" xmlns="http://www.w3.org/2000/svg">
<path fill-rule="evenodd" clip-rule="evenodd" d="M1 18.5636V2.5636C1 1.45903 1.89543 0.563599 3 0.563599H17C18.1046 0.563599 19 1.45903 19 2.5636V18.5636C19 19.6682 18.1046 20.5636 17 20.5636H3C1.89543 20.5636 1 19.6682 1 18.5636ZM6 3.5636C5.44771 3.5636 5 4.01131 5 4.5636C5 5.11588 5.44771 5.5636 6 5.5636H14C14.5523 5.5636 15 5.11588 15 4.5636C15 4.01131 14.5523 3.5636 14 3.5636H6ZM12.6317 11.7884C13.0598 12.1372 13.1241 12.7671 12.7752 13.1953L10.3308 16.1953C10.0093 16.5898 9.44287 16.68 9.0148 16.4048L7.45924 15.4048C6.99467 15.1061 6.86017 14.4874 7.15882 14.0228C7.45747 13.5583 8.07619 13.4238 8.54076 13.7224L9.34472 14.2393L11.2248 11.9319C11.5736 11.5038 12.2035 11.4395 12.6317 11.7884Z" fill="black" fill-opacity="1"/>
</svg>
